<?xml version="1.0" encoding="UTF-8"?>
<svg xmlns="http://www.w3.org/2000/svg" width="56" height="56" viewBox="0 0 56 56" fill="none">
  <path opacity="0.4" d="M47.8333 23.778H41.09C35.56 23.778 31.0566 19.2746 31.0566 13.7446V7.0013C31.0566 5.71797 30.0066 4.66797 28.7233 4.66797H18.83C11.6433 4.66797 5.83331 9.33464 5.83331 17.6646V38.338C5.83331 46.668 11.6433 51.3346 18.83 51.3346H37.17C44.3567 51.3346 50.1666 46.668 50.1666 38.338V26.1113C50.1666 24.828 49.1166 23.778 47.8333 23.778Z" fill="#E3508E"></path>
  <path d="M36.8667 5.15779C35.91 4.20112 34.2534 4.85446 34.2534 6.18446V14.3278C34.2534 17.7345 37.1467 20.5578 40.67 20.5578C42.8867 20.5811 45.9667 20.5811 48.6034 20.5811C49.9334 20.5811 50.6334 19.0178 49.7 18.0845C46.34 14.7011 40.32 8.61112 36.8667 5.15779Z" fill="#E3508E"></path>
  <path d="M28.6533 34.3467C27.9767 33.67 26.8567 33.67 26.18 34.3467L24.5 36.0267V26.25C24.5 25.2933 23.7067 24.5 22.75 24.5C21.7933 24.5 21 25.2933 21 26.25V36.0267L19.32 34.3467C18.6433 33.67 17.5233 33.67 16.8467 34.3467C16.17 35.0233 16.17 36.1433 16.8467 36.82L21.5133 41.4867C21.5367 41.51 21.56 41.51 21.56 41.5333C21.7 41.6733 21.8867 41.79 22.0733 41.8833C22.3067 41.9533 22.5167 42 22.75 42C22.9833 42 23.1933 41.9533 23.4033 41.86C23.6133 41.7667 23.8 41.65 23.9867 41.4867L28.6533 36.82C29.33 36.1433 29.33 35.0233 28.6533 34.3467Z" fill="#E3508E"></path>
</svg>
