<?xml version="1.0" encoding="UTF-8"?>
<svg xmlns="http://www.w3.org/2000/svg" width="56" height="56" viewBox="0 0 56 56" fill="none">
  <path opacity="0.4" d="M51.38 39.2473L44.0767 22.1673C42.7467 19.0406 40.7633 17.2673 38.5 17.1506C36.26 17.034 34.09 18.5973 32.4333 21.584L28 29.5406C27.0667 31.2206 25.7367 32.224 24.29 32.3406C22.82 32.4806 21.35 31.7106 20.16 30.194L19.6467 29.5406C17.99 27.464 15.9367 26.4606 13.8367 26.6706C11.7367 26.8806 9.94 28.3273 8.75 30.684L4.71333 38.734C3.26667 41.6506 3.40667 45.034 5.11 47.7873C6.81333 50.5406 9.77667 52.1973 13.02 52.1973H42.7933C45.92 52.1973 48.8367 50.634 50.5633 48.0206C52.3367 45.4073 52.6167 42.1173 51.38 39.2473Z" fill="#E3508E"></path>
  <path d="M16.2633 19.5546C20.619 19.5546 24.15 16.0236 24.15 11.6679C24.15 7.31223 20.619 3.78125 16.2633 3.78125C11.9076 3.78125 8.37666 7.31223 8.37666 11.6679C8.37666 16.0236 11.9076 19.5546 16.2633 19.5546Z" fill="#E3508E"></path>
</svg>
