<?xml version="1.0" encoding="UTF-8"?>
<svg xmlns="http://www.w3.org/2000/svg" width="56" height="56" viewBox="0 0 56 56" fill="none">
  <path d="M45.5 17.5014L42.0233 20.978L35.0233 13.978L38.5 10.5014C39.48 9.52135 40.74 9.05469 42 9.05469C43.26 9.05469 44.52 9.52135 45.5 10.5014C47.4366 12.438 47.4366 15.5647 45.5 17.5014Z" fill="#E3508E"></path>
  <path opacity="0.4" d="M42.0233 20.9766L15.1667 47.8332C13.23 49.7699 10.1033 49.7699 8.16667 47.8332C6.23001 45.8966 6.23001 42.7699 8.16667 40.8332L35.0233 13.9766L42.0233 20.9766Z" fill="#E3508E"></path>
  <path d="M23.2167 8.16524L24.1733 4.92191C24.2667 4.61857 24.1733 4.29191 23.9633 4.05857C23.7533 3.82524 23.38 3.73191 23.0767 3.82524L19.8333 4.78191L16.59 3.82524C16.2867 3.73191 15.96 3.82524 15.7267 4.03524C15.4933 4.26857 15.4233 4.59524 15.5167 4.89857L16.45 8.16524L15.4933 11.4086C15.4 11.7119 15.4933 12.0386 15.7033 12.2719C15.9367 12.5052 16.2633 12.5752 16.5667 12.4819L19.8333 11.5486L23.0767 12.5052C23.17 12.5286 23.24 12.5519 23.3333 12.5519C23.5667 12.5519 23.7767 12.4586 23.9633 12.2952C24.1967 12.0619 24.2667 11.7352 24.1733 11.4319L23.2167 8.16524Z" fill="#E3508E"></path>
  <path d="M13.8834 22.1652L14.84 18.9219C14.9334 18.6186 14.84 18.2919 14.63 18.0586C14.3967 17.8252 14.07 17.7552 13.7667 17.8486L10.5 18.7819L7.25669 17.8252C6.95335 17.7319 6.62669 17.8252 6.39335 18.0352C6.16002 18.2686 6.09002 18.5952 6.18335 18.8986L7.11669 22.1652L6.16002 25.4086C6.06669 25.7119 6.16002 26.0386 6.37002 26.2719C6.60335 26.5052 6.93002 26.5752 7.23335 26.4819L10.4767 25.5252L13.72 26.4819C13.79 26.5052 13.8834 26.5052 13.9767 26.5052C14.21 26.5052 14.42 26.4119 14.6067 26.2486C14.84 26.0152 14.91 25.6886 14.8167 25.3852L13.8834 22.1652Z" fill="#E3508E"></path>
  <path d="M48.8834 33.8332L49.84 30.5899C49.9334 30.2866 49.84 29.9599 49.63 29.7266C49.3967 29.4932 49.07 29.4232 48.7667 29.5166L45.5234 30.4732L42.28 29.5166C41.9767 29.4232 41.65 29.5166 41.4167 29.7266C41.1834 29.9599 41.1134 30.2866 41.2067 30.5899L42.1634 33.8332L41.2067 37.0766C41.1134 37.3799 41.2067 37.7066 41.4167 37.9399C41.65 38.1732 41.9767 38.2432 42.28 38.1499L45.5234 37.1932L48.7667 38.1499C48.8367 38.1732 48.93 38.1732 49.0234 38.1732C49.2567 38.1732 49.4667 38.0799 49.6534 37.9166C49.8867 37.6832 49.9567 37.3566 49.8634 37.0532L48.8834 33.8332Z" fill="#E3508E"></path>
</svg>
