<?xml version="1.0" encoding="UTF-8"?>
<svg xmlns="http://www.w3.org/2000/svg" xmlns:xlink="http://www.w3.org/1999/xlink" width="3120" height="1106" viewBox="0 0 3120 1106">

<path fill-rule="evenodd" fill="rgb(85.9375%, 85.9375%, 86.326599%)" fill-opacity="1" d="M 2222.878906 750.515625 L 2370.441406 898.078125 L 2706.519531 561.835938 L 2585.539062 440.855469 L 2370.429688 225.863281 L 2245.351562 350.949219 L 2230.761719 365.542969 L 2034.378906 561.921875 L 2222.878906 750.515625 "/>
<path fill-rule="evenodd" fill="rgb(85.9375%, 85.9375%, 86.326599%)" fill-opacity="1" d="M 1500.25 1037.683594 L 1836.328125 701.613281 L 1500.261719 365.542969 L 1298.160156 567.628906 L 1283.570312 582.222656 L 1164.179688 701.613281 L 1500.25 1037.683594 "/>
<path fill-rule="evenodd" fill="rgb(85.9375%, 85.9375%, 86.326599%)" fill-opacity="1" d="M 769.746094 1037.683594 L 1105.820312 701.613281 L 1120.410156 687.023438 L 1254.390625 553.039062 L 903.726562 202.375 L 889.132812 187.785156 L 769.746094 68.390625 L 433.671875 404.46875 L 419.082031 419.054688 L 285.101562 553.039062 L 635.765625 903.703125 L 650.355469 918.300781 L 769.746094 1037.683594 "/>
<path fill-rule="evenodd" fill="rgb(85.9375%, 85.9375%, 86.326599%)" fill-opacity="1" d="M 740.566406 1066.867188 L 501.785156 1066.867188 L 621.175781 947.476562 L 740.5625 1066.859375 Z M 68.421875 1066.867188 L 39.242188 1066.867188 L 39.242188 798.898438 L 53.832031 784.308594 L 68.421875 769.722656 L 255.921875 582.21875 L 591.996094 918.296875 L 443.425781 1066.867188 L 68.421875 1066.867188 "/>
<path fill-rule="evenodd" fill="rgb(85.9375%, 85.9375%, 86.326599%)" fill-opacity="1" d="M 1471.070312 1066.867188 L 798.925781 1066.867188 L 1135 730.796875 L 1471.070312 1066.859375 L 1471.070312 1066.867188 "/>
<path fill-rule="evenodd" fill="rgb(85.9375%, 85.9375%, 86.326599%)" fill-opacity="1" d="M 2480.871094 1066.867188 L 1529.441406 1066.867188 L 1865.511719 730.796875 L 1880.101562 716.203125 L 1906.148438 690.152344 L 2005.148438 591.148438 L 2480.871094 1066.867188 "/>
<path fill-rule="evenodd" fill="rgb(85.9375%, 85.9375%, 86.326599%)" fill-opacity="1" d="M 3080.761719 245.867188 L 3080.761719 679.921875 L 2863.671875 462.960938 Z M 3080.761719 738.109375 L 3080.761719 1066.867188 L 2563.101562 1066.867188 L 2411.519531 915.214844 L 2834.75 492.242188 L 3080.761719 738.109375 "/>
<path fill-rule="evenodd" fill="rgb(85.9375%, 85.9375%, 86.326599%)" fill-opacity="1" d="M 2557.078125 39.210938 L 3080.761719 39.210938 L 3080.761719 187.507812 L 2735.660156 532.613281 L 2399.671875 196.621094 L 2557.078125 39.210938 "/>
<path fill-rule="evenodd" fill="rgb(85.9375%, 85.9375%, 86.326599%)" fill-opacity="1" d="M 1962.789062 39.210938 L 2498.71875 39.210938 L 2355.898438 182.03125 L 2341.308594 196.628906 L 2230.761719 307.179688 L 1962.789062 39.210938 "/>
<path fill-rule="evenodd" fill="rgb(85.9375%, 85.9375%, 86.326599%)" fill-opacity="1" d="M 1826.578125 39.210938 L 1904.429688 39.210938 L 2201.578125 336.359375 L 2149.871094 388.070312 L 1990.640625 547.203125 L 1976.050781 561.789062 L 1976.101562 561.839844 L 1887.980469 649.964844 L 1865.511719 672.433594 L 1529.429688 336.359375 L 1663.410156 202.375 L 1826.578125 39.210938 "/>
<path fill-rule="evenodd" fill="rgb(85.9375%, 85.9375%, 86.326599%)" fill-opacity="1" d="M 1529.429688 39.210938 L 1768.21875 39.210938 L 1648.828125 158.609375 Z M 1096.070312 39.210938 L 1471.070312 39.210938 L 1619.640625 187.785156 L 1485.660156 321.769531 L 1283.570312 523.859375 L 947.496094 187.785156 L 1096.070312 39.210938 "/>
<path fill-rule="evenodd" fill="rgb(85.9375%, 85.9375%, 86.326599%)" fill-opacity="1" d="M 798.925781 39.210938 L 1037.710938 39.210938 L 918.316406 158.605469 Z M 68.421875 39.210938 L 740.566406 39.210938 L 404.492188 375.285156 L 68.421875 39.21875 Z M 39.242188 740.53125 L 39.242188 68.390625 L 375.3125 404.464844 L 255.917969 523.859375 L 241.332031 538.449219 L 39.242188 740.53125 "/>
</svg>
