<svg width="48" height="48" viewBox="0 0 48 48" xmlns="http://www.w3.org/2000/svg" role="img" aria-label="WhatsApp"><defs><linearGradient id="wg" x1="0%" y1="0%" x2="0%" y2="100%"><stop stop-color="#25D366" offset="0%"/><stop stop-color="#20bd5a" offset="100%"/></linearGradient></defs><g fill="none" fill-rule="evenodd"><circle cx="24" cy="24" r="22" fill="url(#wg)"/><path d="M17.4 14.4c-.4 0-.9.1-1.3.6-.5.5-1.6 1.6-1.6 3.9 0 2.3 1.7 4.5 1.9 4.8.2.3 3.4 5.5 8.5 7.5 4.2 1.7 4.9 1.4 5.8 1.3.9-.1 2.9-1.2 3.3-2.4.4-1.2.4-2.3.3-2.5-.1-.2-.5-.3-1-.5-.5-.2-3.1-1.5-3.6-1.6-.5-.2-.8-.2-1.1.2-.3.4-1.2 1.6-1.4 1.9-.3.3-.5.3-1 .1-.5-.2-2.1-.8-4-2.5-1.5-1.3-2.5-2.9-2.8-3.4-.3-.5 0-.8.2-1 .2-.2.5-.6.7-.9.2-.3.3-.5.4-.8.1-.3 0-.6 0-.8 0-.2-.9-2.2-1.3-3-.3-.6-.7-.7-1.1-.8-.1 0-.2 0-.3 0z" fill="#FFF"/></g></svg>
