<?xml version="1.0" encoding="UTF-8"?>
<svg id="Layer_1" xmlns="http://www.w3.org/2000/svg" version="1.1" viewBox="0 0 595.3 936">
  <!-- Generator: Adobe Illustrator 29.0.1, SVG Export Plug-In . SVG Version: 2.1.0 Build 192)  -->
  <defs>
    <style>
      .st0 {
        fill: #00c1f3;
        stroke: #231f20;
        stroke-miterlimit: 10;
      }

      .st1 {
        fill: #231f20;
        font-family: MyriadPro-Regular, 'Myriad Pro';
        font-size: 20.7px;
      }
    </style>
  </defs>
  <polygon class="st0" points="134.3 193.8 103.4 211.9 103.6 247.7 134.7 265.4 165.6 247.4 165.4 211.6 134.3 193.8"/>
  <polygon class="st0" points="199 193.8 168.1 211.9 168.3 247.7 199.3 265.4 230.2 247.4 230.1 211.6 199 193.8"/>
  <polygon class="st0" points="263.6 193.8 232.7 211.9 232.9 247.7 264 265.4 294.9 247.4 294.7 211.6 263.6 193.8"/>
  <polygon class="st0" points="328.2 193.8 297.3 211.9 297.5 247.7 328.6 265.4 359.5 247.4 359.3 211.6 328.2 193.8"/>
  <polygon class="st0" points="392.9 193.8 362 211.9 362.2 247.7 393.2 265.4 424.1 247.4 424 211.6 392.9 193.8"/>
  <polygon class="st0" points="457.5 193.8 426.6 211.9 426.8 247.7 457.9 265.4 488.8 247.4 488.6 211.6 457.5 193.8"/>
  <polygon class="st0" points="166.7 251.7 135.8 269.8 135.9 305.5 167 323.3 197.9 305.2 197.7 269.4 166.7 251.7"/>
  <polygon class="st0" points="231.3 251.7 200.4 269.8 200.6 305.5 231.7 323.3 262.6 305.2 262.4 269.4 231.3 251.7"/>
  <polygon class="st0" points="295.9 251.7 265 269.8 265.2 305.5 296.3 323.3 327.2 305.2 327 269.4 295.9 251.7"/>
  <polygon class="st0" points="360.6 251.7 329.7 269.8 329.8 305.5 360.9 323.3 391.8 305.2 391.6 269.4 360.6 251.7"/>
  <polygon class="st0" points="425.2 251.7 394.3 269.8 394.5 305.5 425.5 323.3 456.5 305.2 456.3 269.4 425.2 251.7"/>
  <polygon class="st0" points="166.7 135.9 135.8 153.9 135.9 189.7 167 207.4 197.9 189.4 197.7 153.6 166.7 135.9"/>
  <polygon class="st0" points="231.3 135.9 200.4 153.9 200.6 189.7 231.7 207.4 262.6 189.4 262.4 153.6 231.3 135.9"/>
  <polygon class="st0" points="295.9 135.9 265 153.9 265.2 189.7 296.3 207.4 327.2 189.4 327 153.6 295.9 135.9"/>
  <polygon class="st0" points="360.6 135.9 329.7 153.9 329.8 189.7 360.9 207.4 391.8 189.4 391.6 153.6 360.6 135.9"/>
  <polygon class="st0" points="425.2 135.9 394.3 153.9 394.5 189.7 425.5 207.4 456.5 189.4 456.3 153.6 425.2 135.9"/>
  <polygon class="st0" points="134.3 309.7 103.4 327.7 103.6 363.5 134.7 381.3 165.6 363.2 165.4 327.4 134.3 309.7"/>
  <polygon class="st0" points="199 309.7 168.1 327.7 168.3 363.5 199.3 381.3 230.2 363.2 230.1 327.4 199 309.7"/>
  <polygon class="st0" points="392.9 309.7 362 327.7 362.2 363.5 393.2 381.3 424.1 363.2 424 327.4 392.9 309.7"/>
  <polygon class="st0" points="457.5 309.7 426.6 327.7 426.8 363.5 457.9 381.3 488.8 363.2 488.6 327.4 457.5 309.7"/>
  <polygon class="st0" points="166.7 367.5 135.8 385.6 135.9 421.4 167 439.1 197.9 421.1 197.7 385.3 166.7 367.5"/>
  <polygon class="st0" points="425.2 367.5 394.3 385.6 394.5 421.4 425.5 439.1 456.5 421.1 456.3 385.3 425.2 367.5"/>
  <polygon class="st0" points="134.3 425.5 103.4 443.6 103.6 479.4 134.7 497.1 165.6 479.1 165.4 443.3 134.3 425.5"/>
  <polygon class="st0" points="457.5 425.5 426.6 443.6 426.8 479.4 457.9 497.1 488.8 479.1 488.6 443.3 457.5 425.5"/>
  <polygon class="st0" points="166.7 483.4 135.8 501.4 135.9 537.2 167 555 197.9 536.9 197.7 501.1 166.7 483.4"/>
  <polygon class="st0" points="425.2 483.4 394.3 501.4 394.5 537.2 425.5 555 456.5 536.9 456.3 501.1 425.2 483.4"/>
  <polygon class="st0" points="134.3 541.4 103.4 559.4 103.6 595.2 134.7 612.9 165.6 594.9 165.4 559.1 134.3 541.4"/>
  <polygon class="st0" points="199 541.4 168.1 559.4 168.3 595.2 199.3 612.9 230.2 594.9 230.1 559.1 199 541.4"/>
  <polygon class="st0" points="392.9 541.4 362 559.4 362.2 595.2 393.2 612.9 424.1 594.9 424 559.1 392.9 541.4"/>
  <polygon class="st0" points="457.5 541.4 426.6 559.4 426.8 595.2 457.9 612.9 488.8 594.9 488.6 559.1 457.5 541.4"/>
  <polygon class="st0" points="166.7 599.2 135.8 617.3 135.9 653.1 167 670.8 197.9 652.7 197.7 617 166.7 599.2"/>
  <polygon class="st0" points="231.3 599.2 200.4 617.3 200.6 653.1 231.7 670.8 262.6 652.7 262.4 617 231.3 599.2"/>
  <polygon class="st0" points="295.9 599.2 265 617.3 265.2 653.1 296.3 670.8 327.2 652.7 327 617 295.9 599.2"/>
  <polygon class="st0" points="360.6 599.2 329.7 617.3 329.8 653.1 360.9 670.8 391.8 652.7 391.6 617 360.6 599.2"/>
  <polygon class="st0" points="425.2 599.2 394.3 617.3 394.5 653.1 425.5 670.8 456.5 652.7 456.3 617 425.2 599.2"/>
  <polygon class="st0" points="134.3 657.2 103.4 675.2 103.6 711 134.7 728.8 165.6 710.7 165.4 674.9 134.3 657.2"/>
  <polygon class="st0" points="199 657.2 168.1 675.2 168.3 711 199.3 728.8 230.2 710.7 230.1 674.9 199 657.2"/>
  <polygon class="st0" points="263.6 657.2 232.7 675.2 232.9 711 264 728.8 294.9 710.7 294.7 674.9 263.6 657.2"/>
  <polygon class="st0" points="328.2 657.2 297.3 675.2 297.5 711 328.6 728.8 359.5 710.7 359.3 674.9 328.2 657.2"/>
  <polygon class="st0" points="392.9 657.2 362 675.2 362.2 711 393.2 728.8 424.1 710.7 424 674.9 392.9 657.2"/>
  <polygon class="st0" points="457.5 657.2 426.6 675.2 426.8 711 457.9 728.8 488.8 710.7 488.6 674.9 457.5 657.2"/>
  <polygon class="st0" points="134.3 773 103.4 791.1 103.6 826.9 134.7 844.6 165.6 826.6 165.4 790.8 134.3 773"/>
  <polygon class="st0" points="199 773 168.1 791.1 168.3 826.9 199.3 844.6 230.2 826.6 230.1 790.8 199 773"/>
  <polygon class="st0" points="263.6 773 232.7 791.1 232.9 826.9 264 844.6 294.9 826.6 294.7 790.8 263.6 773"/>
  <polygon class="st0" points="328.2 773 297.3 791.1 297.5 826.9 328.6 844.6 359.5 826.6 359.3 790.8 328.2 773"/>
  <polygon class="st0" points="392.9 773 362 791.1 362.2 826.9 393.2 844.6 424.1 826.6 424 790.8 392.9 773"/>
  <polygon class="st0" points="457.5 773 426.6 791.1 426.8 826.9 457.9 844.6 488.8 826.6 488.6 790.8 457.5 773"/>
  <polygon class="st0" points="522.1 193.8 491.2 211.9 491.4 247.7 522.5 265.4 553.4 247.4 553.2 211.6 522.1 193.8"/>
  <polygon class="st0" points="522.1 309.7 491.2 327.7 491.4 363.5 522.5 381.3 553.4 363.2 553.2 327.4 522.1 309.7"/>
  <polygon class="st0" points="522.1 425.5 491.2 443.6 491.4 479.4 522.5 497.1 553.4 479.1 553.2 443.3 522.1 425.5"/>
  <polygon class="st0" points="522.1 541.4 491.2 559.4 491.4 595.2 522.5 612.9 553.4 594.9 553.2 559.1 522.1 541.4"/>
  <polygon class="st0" points="522.1 657.2 491.2 675.2 491.4 711 522.5 728.8 553.4 710.7 553.2 674.9 522.1 657.2"/>
  <polygon class="st0" points="522.1 773 491.2 791.1 491.4 826.9 522.5 844.6 553.4 826.6 553.2 790.8 522.1 773"/>
  <polygon class="st0" points="69.7 193.8 38.8 211.9 39 247.7 70.1 265.4 101 247.4 100.8 211.6 69.7 193.8"/>
  <polygon class="st0" points="134.3 78 103.4 96.1 103.6 131.8 134.7 149.6 165.6 131.5 165.4 95.7 134.3 78"/>
  <polygon class="st0" points="199 78 168.1 96.1 168.3 131.8 199.3 149.6 230.2 131.5 230.1 95.7 199 78"/>
  <polygon class="st0" points="263.6 78 232.7 96.1 232.9 131.8 264 149.6 294.9 131.5 294.7 95.7 263.6 78"/>
  <polygon class="st0" points="328.2 78 297.3 96.1 297.5 131.8 328.6 149.6 359.5 131.5 359.3 95.7 328.2 78"/>
  <polygon class="st0" points="392.9 78 362 96.1 362.2 131.8 393.2 149.6 424.1 131.5 424 95.7 392.9 78"/>
  <polygon class="st0" points="457.5 78 426.6 96.1 426.8 131.8 457.9 149.6 488.8 131.5 488.6 95.7 457.5 78"/>
  <polygon class="st0" points="522.1 78 491.2 96.1 491.4 131.8 522.5 149.6 553.4 131.5 553.2 95.7 522.1 78"/>
  <polygon class="st0" points="69.7 78 38.8 96.1 39 131.8 70.1 149.6 101 131.5 100.8 95.7 69.7 78"/>
  <polygon class="st0" points="69.7 309.7 38.8 327.7 39 363.5 70.1 381.3 101 363.2 100.8 327.4 69.7 309.7"/>
  <polygon class="st0" points="69.7 425.5 38.8 443.6 39 479.4 70.1 497.1 101 479.1 100.8 443.3 69.7 425.5"/>
  <polygon class="st0" points="69.7 541.4 38.8 559.4 39 595.2 70.1 612.9 101 594.9 100.8 559.1 69.7 541.4"/>
  <polygon class="st0" points="69.7 657.2 38.8 675.2 39 711 70.1 728.8 101 710.7 100.8 674.9 69.7 657.2"/>
  <polygon class="st0" points="69.7 773 38.8 791.1 39 826.9 70.1 844.6 101 826.6 100.8 790.8 69.7 773"/>
  <polygon class="st0" points="166.7 715.1 135.8 733.1 135.9 768.9 167 786.6 197.9 768.6 197.7 732.8 166.7 715.1"/>
  <polygon class="st0" points="231.3 715.1 200.4 733.1 200.6 768.9 231.7 786.6 262.6 768.6 262.4 732.8 231.3 715.1"/>
  <polygon class="st0" points="295.9 715.1 265 733.1 265.2 768.9 296.3 786.6 327.2 768.6 327 732.8 295.9 715.1"/>
  <polygon class="st0" points="360.6 715.1 329.7 733.1 329.8 768.9 360.9 786.6 391.8 768.6 391.6 732.8 360.6 715.1"/>
  <polygon class="st0" points="425.2 715.1 394.3 733.1 394.5 768.9 425.5 786.6 456.5 768.6 456.3 732.8 425.2 715.1"/>
  <polygon class="st0" points="489.8 251.7 458.9 269.8 459.1 305.5 490.2 323.3 521.1 305.2 520.9 269.4 489.8 251.7"/>
  <polygon class="st0" points="489.8 135.9 458.9 153.9 459.1 189.7 490.2 207.4 521.1 189.4 520.9 153.6 489.8 135.9"/>
  <polygon class="st0" points="489.8 367.5 458.9 385.6 459.1 421.4 490.2 439.1 521.1 421.1 520.9 385.3 489.8 367.5"/>
  <polygon class="st0" points="489.8 483.4 458.9 501.4 459.1 537.2 490.2 555 521.1 536.9 520.9 501.1 489.8 483.4"/>
  <polygon class="st0" points="489.8 599.2 458.9 617.3 459.1 653.1 490.2 670.8 521.1 652.7 520.9 617 489.8 599.2"/>
  <polygon class="st0" points="489.8 715.1 458.9 733.1 459.1 768.9 490.2 786.6 521.1 768.6 520.9 732.8 489.8 715.1"/>
  <polygon class="st0" points="102 251.7 71.1 269.8 71.3 305.5 102.4 323.3 133.3 305.2 133.1 269.4 102 251.7"/>
  <polygon class="st0" points="102 135.9 71.1 153.9 71.3 189.7 102.4 207.4 133.3 189.4 133.1 153.6 102 135.9"/>
  <polygon class="st0" points="166.7 20 135.8 38.1 135.9 73.9 167 91.6 197.9 73.6 197.7 37.8 166.7 20"/>
  <polygon class="st0" points="231.3 20 200.4 38.1 200.6 73.9 231.7 91.6 262.6 73.6 262.4 37.8 231.3 20"/>
  <polygon class="st0" points="295.9 20 265 38.1 265.2 73.9 296.3 91.6 327.2 73.6 327 37.8 295.9 20"/>
  <polygon class="st0" points="360.6 20 329.7 38.1 329.8 73.9 360.9 91.6 391.8 73.6 391.6 37.8 360.6 20"/>
  <polygon class="st0" points="425.2 20 394.3 38.1 394.5 73.9 425.5 91.6 456.5 73.6 456.3 37.8 425.2 20"/>
  <polygon class="st0" points="489.8 20 458.9 38.1 459.1 73.9 490.2 91.6 521.1 73.6 520.9 37.8 489.8 20"/>
  <polygon class="st0" points="102 20 71.1 38.1 71.3 73.9 102.4 91.6 133.3 73.6 133.1 37.8 102 20"/>
  <polygon class="st0" points="102 367.5 71.1 385.6 71.3 421.4 102.4 439.1 133.3 421.1 133.1 385.3 102 367.5"/>
  <polygon class="st0" points="102 483.4 71.1 501.4 71.3 537.2 102.4 555 133.3 536.9 133.1 501.1 102 483.4"/>
  <polygon class="st0" points="102 599.2 71.1 617.3 71.3 653.1 102.4 670.8 133.3 652.7 133.1 617 102 599.2"/>
  <polygon class="st0" points="102 715.1 71.1 733.1 71.3 768.9 102.4 786.6 133.3 768.6 133.1 732.8 102 715.1"/>
  <polygon class="st0" points="166.7 830.9 135.8 848.9 135.9 884.7 167 902.5 197.9 884.4 197.7 848.6 166.7 830.9"/>
  <polygon class="st0" points="231.3 830.9 200.4 848.9 200.6 884.7 231.7 902.5 262.6 884.4 262.4 848.6 231.3 830.9"/>
  <polygon class="st0" points="295.9 830.9 265 848.9 265.2 884.7 296.3 902.5 327.2 884.4 327 848.6 295.9 830.9"/>
  <polygon class="st0" points="360.6 830.9 329.7 848.9 329.8 884.7 360.9 902.5 391.8 884.4 391.6 848.6 360.6 830.9"/>
  <polygon class="st0" points="425.2 830.9 394.3 848.9 394.5 884.7 425.5 902.5 456.5 884.4 456.3 848.6 425.2 830.9"/>
  <polygon class="st0" points="489.8 830.9 458.9 848.9 459.1 884.7 490.2 902.5 521.1 884.4 520.9 848.6 489.8 830.9"/>
  <polygon class="st0" points="554.5 251.7 523.6 269.8 523.7 305.5 554.8 323.3 585.7 305.2 585.5 269.4 554.5 251.7"/>
  <polygon class="st0" points="554.5 135.9 523.6 153.9 523.7 189.7 554.8 207.4 585.7 189.4 585.5 153.6 554.5 135.9"/>
  <polygon class="st0" points="554.5 367.5 523.6 385.6 523.7 421.4 554.8 439.1 585.7 421.1 585.5 385.3 554.5 367.5"/>
  <polygon class="st0" points="554.5 483.4 523.6 501.4 523.7 537.2 554.8 555 585.7 536.9 585.5 501.1 554.5 483.4"/>
  <polygon class="st0" points="554.5 599.2 523.6 617.3 523.7 653.1 554.8 670.8 585.7 652.7 585.5 617 554.5 599.2"/>
  <polygon class="st0" points="554.5 715.1 523.6 733.1 523.7 768.9 554.8 786.6 585.7 768.6 585.5 732.8 554.5 715.1"/>
  <polygon class="st0" points="37.4 251.7 6.5 269.8 6.7 305.5 37.8 323.3 68.7 305.2 68.5 269.4 37.4 251.7"/>
  <polygon class="st0" points="37.4 135.9 6.5 153.9 6.7 189.7 37.8 207.4 68.7 189.4 68.5 153.6 37.4 135.9"/>
  <polygon class="st0" points="37.4 367.5 6.5 385.6 6.7 421.4 37.8 439.1 68.7 421.1 68.5 385.3 37.4 367.5"/>
  <polygon class="st0" points="37.4 483.4 6.5 501.4 6.7 537.2 37.8 555 68.7 536.9 68.5 501.1 37.4 483.4"/>
  <polygon class="st0" points="37.4 599.2 6.5 617.3 6.7 653.1 37.8 670.8 68.7 652.7 68.5 617 37.4 599.2"/>
  <polygon class="st0" points="37.4 715.1 6.5 733.1 6.7 768.9 37.8 786.6 68.7 768.6 68.5 732.8 37.4 715.1"/>
  <polygon class="st0" points="102 830.9 71.1 848.9 71.3 884.7 102.4 902.5 133.3 884.4 133.1 848.6 102 830.9"/>
  <polygon class="st0" points="234.3 327.7 263.2 309.7 296.1 328.5 328.1 309.7 356.7 325.8 356.7 365.4 389.4 383.8 389.4 420.4 420.5 441.8 421.8 477.8 390.9 497.1 389.8 535 358 555.7 357.7 594.4 328.5 613.7 296.1 592.4 263.9 612.2 234.3 596.2 234.3 557.3 202.4 538.5 202.4 500.2 170.1 480.5 170.1 442.9 202.4 423.2 202.8 385.6 236 365.3 234.3 327.7"/>
  <text class="st1" transform="translate(511.3 929.9)"><tspan x="0" y="0">110</tspan></text>
</svg>