<?xml version="1.0" encoding="UTF-8"?>
<svg id="Layer_1" xmlns="http://www.w3.org/2000/svg" version="1.1" viewBox="0 0 595.3 936">
  <!-- Generator: Adobe Illustrator 29.0.1, SVG Export Plug-In . SVG Version: 2.1.0 Build 192)  -->
  <defs>
    <style>
      .st0 {
        fill: #00c1f3;
        stroke: #231f20;
        stroke-miterlimit: 10;
      }

      .st1 {
        fill: #231f20;
        font-family: MyriadPro-Regular, 'Myriad Pro';
        font-size: 20.7px;
      }
    </style>
  </defs>
  <polygon class="st0" points="135.6 193.8 104.7 211.9 104.9 247.7 136 265.4 166.9 247.4 166.7 211.6 135.6 193.8"/>
  <polygon class="st0" points="200.2 193.8 169.3 211.9 169.5 247.7 200.6 265.4 231.5 247.4 231.3 211.6 200.2 193.8"/>
  <polygon class="st0" points="264.9 193.8 234 211.9 234.2 247.7 265.2 265.4 296.1 247.4 296 211.6 264.9 193.8"/>
  <polygon class="st0" points="329.5 193.8 298.6 211.9 298.8 247.7 329.9 265.4 360.8 247.4 360.6 211.6 329.5 193.8"/>
  <polygon class="st0" points="394.1 193.8 363.2 211.9 363.4 247.7 394.5 265.4 425.4 247.4 425.2 211.6 394.1 193.8"/>
  <polygon class="st0" points="458.8 193.8 427.9 211.9 428.1 247.7 459.1 265.4 490 247.4 489.9 211.6 458.8 193.8"/>
  <polygon class="st0" points="167.9 251.7 137 269.8 137.2 305.5 168.3 323.3 199.2 305.2 199 269.4 167.9 251.7"/>
  <polygon class="st0" points="232.6 251.7 201.7 269.8 201.8 305.5 232.9 323.3 263.8 305.2 263.6 269.4 232.6 251.7"/>
  <polygon class="st0" points="297.2 251.7 266.3 269.8 266.5 305.5 297.6 323.3 328.5 305.2 328.3 269.4 297.2 251.7"/>
  <polygon class="st0" points="361.8 251.7 330.9 269.8 331.1 305.5 362.2 323.3 393.1 305.2 392.9 269.4 361.8 251.7"/>
  <polygon class="st0" points="426.5 251.7 395.6 269.8 395.7 305.5 426.8 323.3 457.7 305.2 457.5 269.4 426.5 251.7"/>
  <polygon class="st0" points="167.9 135.9 137 153.9 137.2 189.7 168.3 207.4 199.2 189.4 199 153.6 167.9 135.9"/>
  <polygon class="st0" points="232.6 135.9 201.7 153.9 201.8 189.7 232.9 207.4 263.8 189.4 263.6 153.6 232.6 135.9"/>
  <polygon class="st0" points="297.2 135.9 266.3 153.9 266.5 189.7 297.6 207.4 328.5 189.4 328.3 153.6 297.2 135.9"/>
  <polygon class="st0" points="361.8 135.9 330.9 153.9 331.1 189.7 362.2 207.4 393.1 189.4 392.9 153.6 361.8 135.9"/>
  <polygon class="st0" points="426.5 135.9 395.6 153.9 395.7 189.7 426.8 207.4 457.7 189.4 457.5 153.6 426.5 135.9"/>
  <polygon class="st0" points="135.6 309.7 104.7 327.7 104.9 363.5 136 381.3 166.9 363.2 166.7 327.4 135.6 309.7"/>
  <polygon class="st0" points="200.2 309.7 169.3 327.7 169.5 363.5 200.6 381.3 231.5 363.2 231.3 327.4 200.2 309.7"/>
  <polygon class="st0" points="394.1 309.7 363.2 327.7 363.4 363.5 394.5 381.3 425.4 363.2 425.2 327.4 394.1 309.7"/>
  <polygon class="st0" points="458.8 309.7 427.9 327.7 428.1 363.5 459.1 381.3 490 363.2 489.9 327.4 458.8 309.7"/>
  <polygon class="st0" points="167.9 367.5 137 385.6 137.2 421.4 168.3 439.1 199.2 421.1 199 385.3 167.9 367.5"/>
  <polygon class="st0" points="426.5 367.5 395.6 385.6 395.7 421.4 426.8 439.1 457.7 421.1 457.5 385.3 426.5 367.5"/>
  <polygon class="st0" points="135.6 425.5 104.7 443.6 104.9 479.4 136 497.1 166.9 479.1 166.7 443.3 135.6 425.5"/>
  <polygon class="st0" points="458.8 425.5 427.9 443.6 428.1 479.4 459.1 497.1 490 479.1 489.9 443.3 458.8 425.5"/>
  <polygon class="st0" points="167.9 483.4 137 501.4 137.2 537.2 168.3 555 199.2 536.9 199 501.1 167.9 483.4"/>
  <polygon class="st0" points="426.5 483.4 395.6 501.4 395.7 537.2 426.8 555 457.7 536.9 457.5 501.1 426.5 483.4"/>
  <polygon class="st0" points="135.6 541.4 104.7 559.4 104.9 595.2 136 612.9 166.9 594.9 166.7 559.1 135.6 541.4"/>
  <polygon class="st0" points="200.2 541.4 169.3 559.4 169.5 595.2 200.6 612.9 231.5 594.9 231.3 559.1 200.2 541.4"/>
  <polygon class="st0" points="394.1 541.4 363.2 559.4 363.4 595.2 394.5 612.9 425.4 594.9 425.2 559.1 394.1 541.4"/>
  <polygon class="st0" points="458.8 541.4 427.9 559.4 428.1 595.2 459.1 612.9 490 594.9 489.9 559.1 458.8 541.4"/>
  <polygon class="st0" points="167.9 599.2 137 617.3 137.2 653.1 168.3 670.8 199.2 652.7 199 617 167.9 599.2"/>
  <polygon class="st0" points="232.6 599.2 201.7 617.3 201.8 653.1 232.9 670.8 263.8 652.7 263.6 617 232.6 599.2"/>
  <polygon class="st0" points="297.2 599.2 266.3 617.3 266.5 653.1 297.6 670.8 328.5 652.7 328.3 617 297.2 599.2"/>
  <polygon class="st0" points="361.8 599.2 330.9 617.3 331.1 653.1 362.2 670.8 393.1 652.7 392.9 617 361.8 599.2"/>
  <polygon class="st0" points="426.5 599.2 395.6 617.3 395.7 653.1 426.8 670.8 457.7 652.7 457.5 617 426.5 599.2"/>
  <polygon class="st0" points="135.6 657.2 104.7 675.2 104.9 711 136 728.8 166.9 710.7 166.7 674.9 135.6 657.2"/>
  <polygon class="st0" points="200.2 657.2 169.3 675.2 169.5 711 200.6 728.8 231.5 710.7 231.3 674.9 200.2 657.2"/>
  <polygon class="st0" points="264.9 657.2 234 675.2 234.2 711 265.2 728.8 296.1 710.7 296 674.9 264.9 657.2"/>
  <polygon class="st0" points="329.5 657.2 298.6 675.2 298.8 711 329.9 728.8 360.8 710.7 360.6 674.9 329.5 657.2"/>
  <polygon class="st0" points="394.1 657.2 363.2 675.2 363.4 711 394.5 728.8 425.4 710.7 425.2 674.9 394.1 657.2"/>
  <polygon class="st0" points="458.8 657.2 427.9 675.2 428.1 711 459.1 728.8 490 710.7 489.9 674.9 458.8 657.2"/>
  <polygon class="st0" points="135.6 773 104.7 791.1 104.9 826.9 136 844.6 166.9 826.6 166.7 790.8 135.6 773"/>
  <polygon class="st0" points="200.2 773 169.3 791.1 169.5 826.9 200.6 844.6 231.5 826.6 231.3 790.8 200.2 773"/>
  <polygon class="st0" points="264.9 773 234 791.1 234.2 826.9 265.2 844.6 296.1 826.6 296 790.8 264.9 773"/>
  <polygon class="st0" points="329.5 773 298.6 791.1 298.8 826.9 329.9 844.6 360.8 826.6 360.6 790.8 329.5 773"/>
  <polygon class="st0" points="394.1 773 363.2 791.1 363.4 826.9 394.5 844.6 425.4 826.6 425.2 790.8 394.1 773"/>
  <polygon class="st0" points="458.8 773 427.9 791.1 428.1 826.9 459.1 844.6 490 826.6 489.9 790.8 458.8 773"/>
  <polygon class="st0" points="523.4 193.8 492.5 211.9 492.7 247.7 523.8 265.4 554.7 247.4 554.5 211.6 523.4 193.8"/>
  <polygon class="st0" points="523.4 309.7 492.5 327.7 492.7 363.5 523.8 381.3 554.7 363.2 554.5 327.4 523.4 309.7"/>
  <polygon class="st0" points="523.4 425.5 492.5 443.6 492.7 479.4 523.8 497.1 554.7 479.1 554.5 443.3 523.4 425.5"/>
  <polygon class="st0" points="523.4 541.4 492.5 559.4 492.7 595.2 523.8 612.9 554.7 594.9 554.5 559.1 523.4 541.4"/>
  <polygon class="st0" points="523.4 657.2 492.5 675.2 492.7 711 523.8 728.8 554.7 710.7 554.5 674.9 523.4 657.2"/>
  <polygon class="st0" points="523.4 773 492.5 791.1 492.7 826.9 523.8 844.6 554.7 826.6 554.5 790.8 523.4 773"/>
  <polygon class="st0" points="71 193.8 40.1 211.9 40.3 247.7 71.3 265.4 102.2 247.4 102.1 211.6 71 193.8"/>
  <polygon class="st0" points="135.6 78 104.7 96.1 104.9 131.8 136 149.6 166.9 131.5 166.7 95.7 135.6 78"/>
  <polygon class="st0" points="200.2 78 169.3 96.1 169.5 131.8 200.6 149.6 231.5 131.5 231.3 95.7 200.2 78"/>
  <polygon class="st0" points="264.9 78 234 96.1 234.2 131.8 265.2 149.6 296.1 131.5 296 95.7 264.9 78"/>
  <polygon class="st0" points="329.5 78 298.6 96.1 298.8 131.8 329.9 149.6 360.8 131.5 360.6 95.7 329.5 78"/>
  <polygon class="st0" points="394.1 78 363.2 96.1 363.4 131.8 394.5 149.6 425.4 131.5 425.2 95.7 394.1 78"/>
  <polygon class="st0" points="458.8 78 427.9 96.1 428.1 131.8 459.1 149.6 490 131.5 489.9 95.7 458.8 78"/>
  <polygon class="st0" points="523.4 78 492.5 96.1 492.7 131.8 523.8 149.6 554.7 131.5 554.5 95.7 523.4 78"/>
  <polygon class="st0" points="71 78 40.1 96.1 40.3 131.8 71.3 149.6 102.2 131.5 102.1 95.7 71 78"/>
  <polygon class="st0" points="71 309.7 40.1 327.7 40.3 363.5 71.3 381.3 102.2 363.2 102.1 327.4 71 309.7"/>
  <polygon class="st0" points="71 425.5 40.1 443.6 40.3 479.4 71.3 497.1 102.2 479.1 102.1 443.3 71 425.5"/>
  <polygon class="st0" points="71 541.4 40.1 559.4 40.3 595.2 71.3 612.9 102.2 594.9 102.1 559.1 71 541.4"/>
  <polygon class="st0" points="71 657.2 40.1 675.2 40.3 711 71.3 728.8 102.2 710.7 102.1 674.9 71 657.2"/>
  <polygon class="st0" points="71 773 40.1 791.1 40.3 826.9 71.3 844.6 102.2 826.6 102.1 790.8 71 773"/>
  <polygon class="st0" points="167.9 715.1 137 733.1 137.2 768.9 168.3 786.6 199.2 768.6 199 732.8 167.9 715.1"/>
  <polygon class="st0" points="232.6 715.1 201.7 733.1 201.8 768.9 232.9 786.6 263.8 768.6 263.6 732.8 232.6 715.1"/>
  <polygon class="st0" points="297.2 715.1 266.3 733.1 266.5 768.9 297.6 786.6 328.5 768.6 328.3 732.8 297.2 715.1"/>
  <polygon class="st0" points="361.8 715.1 330.9 733.1 331.1 768.9 362.2 786.6 393.1 768.6 392.9 732.8 361.8 715.1"/>
  <polygon class="st0" points="426.5 715.1 395.6 733.1 395.7 768.9 426.8 786.6 457.7 768.6 457.5 732.8 426.5 715.1"/>
  <polygon class="st0" points="491.1 251.7 460.2 269.8 460.4 305.5 491.4 323.3 522.4 305.2 522.2 269.4 491.1 251.7"/>
  <polygon class="st0" points="491.1 135.9 460.2 153.9 460.4 189.7 491.4 207.4 522.4 189.4 522.2 153.6 491.1 135.9"/>
  <polygon class="st0" points="491.1 367.5 460.2 385.6 460.4 421.4 491.4 439.1 522.4 421.1 522.2 385.3 491.1 367.5"/>
  <polygon class="st0" points="491.1 483.4 460.2 501.4 460.4 537.2 491.4 555 522.4 536.9 522.2 501.1 491.1 483.4"/>
  <polygon class="st0" points="491.1 599.2 460.2 617.3 460.4 653.1 491.4 670.8 522.4 652.7 522.2 617 491.1 599.2"/>
  <polygon class="st0" points="491.1 715.1 460.2 733.1 460.4 768.9 491.4 786.6 522.4 768.6 522.2 732.8 491.1 715.1"/>
  <polygon class="st0" points="103.3 251.7 72.4 269.8 72.6 305.5 103.7 323.3 134.6 305.2 134.4 269.4 103.3 251.7"/>
  <polygon class="st0" points="103.3 135.9 72.4 153.9 72.6 189.7 103.7 207.4 134.6 189.4 134.4 153.6 103.3 135.9"/>
  <polygon class="st0" points="167.9 20 137 38.1 137.2 73.9 168.3 91.6 199.2 73.6 199 37.8 167.9 20"/>
  <polygon class="st0" points="232.6 20 201.7 38.1 201.8 73.9 232.9 91.6 263.8 73.6 263.6 37.8 232.6 20"/>
  <polygon class="st0" points="297.2 20 266.3 38.1 266.5 73.9 297.6 91.6 328.5 73.6 328.3 37.8 297.2 20"/>
  <polygon class="st0" points="361.8 20 330.9 38.1 331.1 73.9 362.2 91.6 393.1 73.6 392.9 37.8 361.8 20"/>
  <polygon class="st0" points="426.5 20 395.6 38.1 395.7 73.9 426.8 91.6 457.7 73.6 457.5 37.8 426.5 20"/>
  <polygon class="st0" points="491.1 20 460.2 38.1 460.4 73.9 491.4 91.6 522.4 73.6 522.2 37.8 491.1 20"/>
  <polygon class="st0" points="103.3 20 72.4 38.1 72.6 73.9 103.7 91.6 134.6 73.6 134.4 37.8 103.3 20"/>
  <polygon class="st0" points="103.3 367.5 72.4 385.6 72.6 421.4 103.7 439.1 134.6 421.1 134.4 385.3 103.3 367.5"/>
  <polygon class="st0" points="103.3 483.4 72.4 501.4 72.6 537.2 103.7 555 134.6 536.9 134.4 501.1 103.3 483.4"/>
  <polygon class="st0" points="103.3 599.2 72.4 617.3 72.6 653.1 103.7 670.8 134.6 652.7 134.4 617 103.3 599.2"/>
  <polygon class="st0" points="103.3 715.1 72.4 733.1 72.6 768.9 103.7 786.6 134.6 768.6 134.4 732.8 103.3 715.1"/>
  <polygon class="st0" points="167.9 830.9 137 848.9 137.2 884.7 168.3 902.5 199.2 884.4 199 848.6 167.9 830.9"/>
  <polygon class="st0" points="232.6 830.9 201.7 848.9 201.8 884.7 232.9 902.5 263.8 884.4 263.6 848.6 232.6 830.9"/>
  <polygon class="st0" points="297.2 830.9 266.3 848.9 266.5 884.7 297.6 902.5 328.5 884.4 328.3 848.6 297.2 830.9"/>
  <polygon class="st0" points="361.8 830.9 330.9 848.9 331.1 884.7 362.2 902.5 393.1 884.4 392.9 848.6 361.8 830.9"/>
  <polygon class="st0" points="426.5 830.9 395.6 848.9 395.7 884.7 426.8 902.5 457.7 884.4 457.5 848.6 426.5 830.9"/>
  <polygon class="st0" points="491.1 830.9 460.2 848.9 460.4 884.7 491.4 902.5 522.4 884.4 522.2 848.6 491.1 830.9"/>
  <polygon class="st0" points="555.7 251.7 524.8 269.8 525 305.5 556.1 323.3 587 305.2 586.8 269.4 555.7 251.7"/>
  <polygon class="st0" points="555.7 135.9 524.8 153.9 525 189.7 556.1 207.4 587 189.4 586.8 153.6 555.7 135.9"/>
  <polygon class="st0" points="555.7 367.5 524.8 385.6 525 421.4 556.1 439.1 587 421.1 586.8 385.3 555.7 367.5"/>
  <polygon class="st0" points="555.7 483.4 524.8 501.4 525 537.2 556.1 555 587 536.9 586.8 501.1 555.7 483.4"/>
  <polygon class="st0" points="555.7 599.2 524.8 617.3 525 653.1 556.1 670.8 587 652.7 586.8 617 555.7 599.2"/>
  <polygon class="st0" points="555.7 715.1 524.8 733.1 525 768.9 556.1 786.6 587 768.6 586.8 732.8 555.7 715.1"/>
  <polygon class="st0" points="555.7 20 524.8 38.1 525 73.9 556.1 91.6 587 73.6 586.8 37.8 555.7 20"/>
  <polygon class="st0" points="555.7 830.9 524.8 848.9 525 884.7 556.1 902.5 587 884.4 586.8 848.6 555.7 830.9"/>
  <polygon class="st0" points="38.7 251.7 7.8 269.8 7.9 305.5 39 323.3 69.9 305.2 69.7 269.4 38.7 251.7"/>
  <polygon class="st0" points="38.7 135.9 7.8 153.9 7.9 189.7 39 207.4 69.9 189.4 69.7 153.6 38.7 135.9"/>
  <polygon class="st0" points="38.7 367.5 7.8 385.6 7.9 421.4 39 439.1 69.9 421.1 69.7 385.3 38.7 367.5"/>
  <polygon class="st0" points="38.7 483.4 7.8 501.4 7.9 537.2 39 555 69.9 536.9 69.7 501.1 38.7 483.4"/>
  <polygon class="st0" points="38.7 599.2 7.8 617.3 7.9 653.1 39 670.8 69.9 652.7 69.7 617 38.7 599.2"/>
  <polygon class="st0" points="38.7 715.1 7.8 733.1 7.9 768.9 39 786.6 69.9 768.6 69.7 732.8 38.7 715.1"/>
  <polygon class="st0" points="38.7 20 7.8 38.1 7.9 73.9 39 91.6 69.9 73.6 69.7 37.8 38.7 20"/>
  <polygon class="st0" points="38.7 830.9 7.8 848.9 7.9 884.7 39 902.5 69.9 884.4 69.7 848.6 38.7 830.9"/>
  <polygon class="st0" points="103.3 830.9 72.4 848.9 72.6 884.7 103.7 902.5 134.6 884.4 134.4 848.6 103.3 830.9"/>
  <polygon class="st0" points="235.5 327.7 264.4 309.7 297.4 328.5 329.4 309.7 358 325.8 358 365.4 390.6 383.8 390.6 420.4 421.8 441.8 423.1 477.8 392.2 497.1 391.1 535 359.2 555.7 358.9 594.4 329.7 613.7 297.4 592.4 265.2 612.2 235.5 596.2 235.5 557.3 203.6 538.5 203.6 500.2 171.4 480.5 171.4 442.9 203.6 423.2 204 385.6 237.3 365.3 235.5 327.7"/>
  <text class="st1" transform="translate(512.5 929.9)"><tspan x="0" y="0">114</tspan></text>
</svg>