<?xml version="1.0" encoding="UTF-8"?>
<svg id="Layer_1" xmlns="http://www.w3.org/2000/svg" version="1.1" viewBox="0 0 595.3 936">
  <!-- Generator: Adobe Illustrator 29.0.1, SVG Export Plug-In . SVG Version: 2.1.0 Build 192)  -->
  <defs>
    <style>
      .st0 {
        fill: #00c1f3;
        stroke: #231f20;
        stroke-miterlimit: 10;
      }

      .st1 {
        fill: #231f20;
        font-family: MyriadPro-Regular, 'Myriad Pro';
        font-size: 20.7px;
      }
    </style>
  </defs>
  <polygon class="st0" points="198.9 182 152.6 209 152.8 262.6 199.4 289.2 245.7 262.2 245.5 208.5 198.9 182"/>
  <polygon class="st0" points="295.8 182 249.4 209 249.7 262.6 296.3 289.2 342.6 262.2 342.3 208.5 295.8 182"/>
  <polygon class="st0" points="392.6 182 346.3 209 346.6 262.6 393.1 289.2 439.5 262.2 439.2 208.5 392.6 182"/>
  <polygon class="st0" points="150.5 268.8 104.1 295.9 104.4 349.5 151 376.1 197.3 349.1 197 295.4 150.5 268.8"/>
  <polygon class="st0" points="441 268.8 394.7 295.9 395 349.5 441.6 376.1 487.9 349.1 487.6 295.4 441 268.8"/>
  <polygon class="st0" points="491.7 355.6 445.4 382.6 445.6 436.2 492.2 462.8 538.5 435.8 538.3 382.1 491.7 355.6"/>
  <polygon class="st0" points="536.1 443 489.7 470.1 490 523.7 536.6 550.3 582.9 523.3 582.6 469.6 536.1 443"/>
  <polygon class="st0" points="102 355.6 55.7 382.6 56 436.2 102.6 462.8 148.9 435.8 148.6 382.1 102 355.6"/>
  <polygon class="st0" points="55 443 8.7 470.1 9 523.7 55.6 550.3 101.9 523.3 101.6 469.6 55 443"/>
  <polygon class="st0" points="102 529.2 55.7 556.2 56 609.8 102.6 636.4 148.9 609.4 148.6 555.7 102 529.2"/>
  <polygon class="st0" points="489.5 529.2 443.2 556.2 443.4 609.8 490 636.4 536.3 609.4 536.1 555.7 489.5 529.2"/>
  <polygon class="st0" points="150.5 616.1 104.1 643.1 104.4 696.7 151 723.3 197.3 696.3 197 642.6 150.5 616.1"/>
  <polygon class="st0" points="441 616.1 394.7 643.1 395 696.7 441.6 723.3 487.9 696.3 487.6 642.6 441 616.1"/>
  <polygon class="st0" points="203.3 295.8 246.7 268.8 296 297.1 344 268.8 386.9 293 386.9 352.3 435.8 379.9 435.8 434.8 482.4 466.8 484.4 520.8 438.1 549.7 436.5 606.6 388.7 637.6 388.3 695.5 344.5 724.5 296 692.5 247.8 722.2 203.3 698.3 203.3 640 155.6 611.7 155.6 554.3 107.2 524.8 107.2 468.5 155.6 439 156.1 382.6 205.9 352.2 203.3 295.8"/>
  <text class="st1" transform="translate(514.4 924.3) scale(.7 1)"><tspan x="0" y="0">13 </tspan></text>
</svg>