<?xml version="1.0" encoding="UTF-8"?>
<svg id="Layer_1" xmlns="http://www.w3.org/2000/svg" version="1.1" viewBox="0 0 595.3 936">
  <!-- Generator: Adobe Illustrator 29.0.1, SVG Export Plug-In . SVG Version: 2.1.0 Build 192)  -->
  <defs>
    <style>
      .st0 {
        fill: #00c1f3;
        stroke: #231f20;
        stroke-miterlimit: 10;
      }

      .st1 {
        fill: #231f20;
        font-family: MyriadPro-Regular, 'Myriad Pro';
        font-size: 20.7px;
      }
    </style>
  </defs>
  <polygon class="st0" points="205 165.8 158.8 192.9 159 246.4 205.5 273 251.8 246 251.5 192.4 205 165.8"/>
  <polygon class="st0" points="301.8 165.8 255.5 192.9 255.8 246.4 302.3 273 348.6 246 348.3 192.4 301.8 165.8"/>
  <polygon class="st0" points="398.5 165.8 352.3 192.9 352.5 246.4 399 273 445.3 246 445 192.4 398.5 165.8"/>
  <polygon class="st0" points="156.6 252.6 110.4 279.7 110.6 333.2 157.2 359.8 203.4 332.8 203.2 279.2 156.6 252.6"/>
  <polygon class="st0" points="446.9 252.6 400.6 279.7 400.9 333.2 447.4 359.8 493.7 332.8 493.4 279.2 446.9 252.6"/>
  <polygon class="st0" points="108.3 339.3 62 366.3 62.3 419.8 108.8 446.4 155.1 419.4 154.8 365.8 108.3 339.3"/>
  <polygon class="st0" points="61.3 426.6 15.1 453.6 15.3 507.2 61.9 533.8 108.1 506.8 107.9 453.2 61.3 426.6"/>
  <polygon class="st0" points="495.3 339.3 449 366.3 449.3 419.8 495.8 446.4 542.1 419.4 541.8 365.8 495.3 339.3"/>
  <polygon class="st0" points="541.8 426.6 495.5 453.7 495.8 507.2 542.3 533.8 588.6 506.8 588.3 453.2 541.8 426.6"/>
  <polygon class="st0" points="108.3 512.7 62 539.7 62.3 593.2 108.8 619.8 155.1 592.8 154.8 539.2 108.3 512.7"/>
  <polygon class="st0" points="495.3 512.7 449 539.7 449.3 593.2 495.8 619.8 542.1 592.8 541.8 539.2 495.3 512.7"/>
  <polygon class="st0" points="156.6 599.5 110.4 626.5 110.6 680 157.2 706.6 203.4 679.6 203.2 626 156.6 599.5"/>
  <polygon class="st0" points="446.9 599.5 400.6 626.5 400.9 680 447.4 706.6 493.7 679.6 493.4 626 446.9 599.5"/>
  <polygon class="st0" points="301.8 686.1 255.5 713.1 255.8 766.7 302.3 793.2 348.6 766.2 348.3 712.6 301.8 686.1"/>
  <polygon class="st0" points="209.5 279.5 252.7 252.6 302 280.8 349.9 252.6 392.8 276.8 392.8 336 441.6 363.5 441.6 418.4 488.2 450.4 490.2 504.3 443.9 533.2 442.4 590 394.6 620.9 394.2 678.8 350.5 707.8 302 675.8 253.9 705.5 209.5 681.6 209.5 623.4 161.7 595.1 161.7 537.8 113.4 508.3 113.4 452.1 161.7 422.6 162.3 366.2 212 335.9 209.5 279.5"/>
  <text class="st1" transform="translate(514.4 924.3) scale(.7 1)"><tspan x="0" y="0">14 </tspan></text>
</svg>