<?xml version="1.0" encoding="UTF-8"?>
<svg id="Layer_1" xmlns="http://www.w3.org/2000/svg" version="1.1" viewBox="0 0 595.3 936">
  <!-- Generator: Adobe Illustrator 29.0.1, SVG Export Plug-In . SVG Version: 2.1.0 Build 192)  -->
  <defs>
    <style>
      .st0 {
        fill: #00c1f3;
        stroke: #231f20;
        stroke-miterlimit: 10;
      }

      .st1 {
        fill: #231f20;
        font-family: MyriadPro-Regular, 'Myriad Pro';
        font-size: 20.7px;
      }
    </style>
  </defs>
  <polygon class="st0" points="200.5 182.2 155.7 208.3 156 260.1 201 285.8 245.7 259.7 245.5 207.9 200.5 182.2"/>
  <polygon class="st0" points="294.1 182.2 249.3 208.3 249.6 260.1 294.6 285.8 339.3 259.7 339.1 207.9 294.1 182.2"/>
  <polygon class="st0" points="387.7 182.2 342.9 208.3 343.2 260.1 388.2 285.8 432.9 259.7 432.7 207.9 387.7 182.2"/>
  <polygon class="st0" points="153.7 266.1 108.9 292.3 109.2 344.1 154.2 369.8 198.9 343.7 198.7 291.8 153.7 266.1"/>
  <polygon class="st0" points="434.5 266.1 389.7 292.3 390 344.1 435 369.8 479.7 343.7 479.5 291.8 434.5 266.1"/>
  <polygon class="st0" points="106.9 349.9 62.1 376.1 62.4 427.9 107.4 453.6 152.1 427.5 151.9 375.6 106.9 349.9"/>
  <polygon class="st0" points="61.5 434.5 16.7 460.6 17 512.4 62 538.1 106.7 512 106.5 460.2 61.5 434.5"/>
  <polygon class="st0" points="481.3 349.9 436.5 376.1 436.8 427.9 481.8 453.6 526.5 427.5 526.3 375.6 481.3 349.9"/>
  <polygon class="st0" points="106.9 517.7 62.1 543.8 62.4 595.7 107.4 621.4 152.1 595.2 151.9 543.4 106.9 517.7"/>
  <polygon class="st0" points="481.3 517.7 436.5 543.8 436.8 595.7 481.8 621.4 526.5 595.2 526.3 543.4 481.3 517.7"/>
  <polygon class="st0" points="153.7 601.7 108.9 627.8 109.2 679.6 154.2 705.3 198.9 679.2 198.7 627.4 153.7 601.7"/>
  <polygon class="st0" points="434.5 601.7 389.7 627.8 390 679.6 435 705.3 479.7 679.2 479.5 627.4 434.5 601.7"/>
  <polygon class="st0" points="294.1 685.5 249.3 711.6 249.6 763.4 294.6 789.1 339.3 763 339.1 711.2 294.1 685.5"/>
  <polygon class="st0" points="200 683.5 155.2 709.6 155.5 761.4 200.5 787.1 245.3 761 245 709.2 200 683.5"/>
  <polygon class="st0" points="526.3 433.2 481.5 459.3 481.8 511.1 526.8 536.8 571.6 510.7 571.3 458.9 526.3 433.2"/>
  <polygon class="st0" points="204.8 292.2 246.6 266.1 294.3 293.4 340.7 266.1 382.1 289.5 382.1 346.8 429.4 373.4 429.4 426.5 474.5 457.4 476.4 509.6 431.6 537.6 430.1 592.5 383.9 622.5 383.5 678.5 341.2 706.5 294.3 675.6 247.8 704.3 204.8 681.1 204.8 624.8 158.6 597.5 158.6 542 111.9 513.5 111.9 459.1 158.6 430.5 159.2 376.1 207.3 346.7 204.8 292.2"/>
  <text class="st1" transform="translate(514.4 924.3) scale(.7 1)"><tspan x="0" y="0">15 </tspan></text>
</svg>