<?xml version="1.0" encoding="UTF-8"?>
<svg id="Layer_1" xmlns="http://www.w3.org/2000/svg" version="1.1" viewBox="0 0 595.3 936">
  <!-- Generator: Adobe Illustrator 29.0.1, SVG Export Plug-In . SVG Version: 2.1.0 Build 192)  -->
  <defs>
    <style>
      .st0 {
        fill: #00c1f3;
        stroke: #231f20;
        stroke-miterlimit: 10;
      }

      .st1 {
        fill: #231f20;
        font-family: MyriadPro-Regular, 'Myriad Pro';
        font-size: 20.7px;
      }
    </style>
  </defs>
  <polygon class="st0" points="208.6 145.5 163.8 171.7 164 223.6 209.1 249.3 253.9 223.1 253.7 171.2 208.6 145.5"/>
  <polygon class="st0" points="302.4 145.5 257.5 171.7 257.8 223.6 302.9 249.3 347.7 223.1 347.5 171.2 302.4 145.5"/>
  <polygon class="st0" points="396.1 145.5 351.3 171.7 351.6 223.6 396.6 249.3 441.5 223.1 441.2 171.2 396.1 145.5"/>
  <polygon class="st0" points="161.7 229.6 116.9 255.8 117.1 307.7 162.2 333.4 207.1 307.3 206.8 255.3 161.7 229.6"/>
  <polygon class="st0" points="443 229.6 398.2 255.8 398.4 307.7 443.5 333.4 488.4 307.3 488.1 255.3 443 229.6"/>
  <polygon class="st0" points="114.8 313.5 70 339.7 70.3 391.6 115.3 417.4 160.2 391.2 159.9 339.3 114.8 313.5"/>
  <polygon class="st0" points="68.7 398.2 23.8 424.4 24.1 476.3 69.2 502.1 114 475.9 113.7 424 68.7 398.2"/>
  <polygon class="st0" points="489.9 313.5 445.1 339.7 445.3 391.6 490.4 417.4 535.2 391.2 535 339.3 489.9 313.5"/>
  <polygon class="st0" points="535.8 397 491 423.2 491.2 475.1 536.3 500.9 581.2 474.7 580.9 422.8 535.8 397"/>
  <polygon class="st0" points="114.8 481.6 70 507.8 70.3 559.7 115.3 585.4 160.2 559.2 159.9 507.3 114.8 481.6"/>
  <polygon class="st0" points="489.9 481.6 445.1 507.8 445.3 559.7 490.4 585.4 535.2 559.2 535 507.3 489.9 481.6"/>
  <polygon class="st0" points="161.7 565.7 116.9 591.9 117.1 643.8 162.2 669.5 207.1 643.4 206.8 591.4 161.7 565.7"/>
  <polygon class="st0" points="443 565.7 398.2 591.9 398.4 643.8 443.5 669.5 488.4 643.4 488.1 591.4 443 565.7"/>
  <polygon class="st0" points="208.6 649.6 163.8 675.8 164 727.7 209.1 753.5 253.9 727.3 253.7 675.4 208.6 649.6"/>
  <polygon class="st0" points="302.4 649.6 257.5 675.8 257.8 727.7 302.9 753.5 347.7 727.3 347.5 675.4 302.4 649.6"/>
  <polygon class="st0" points="396.1 649.6 351.3 675.8 351.6 727.7 396.6 753.5 441.5 727.3 441.2 675.4 396.1 649.6"/>
  <polygon class="st0" points="212.9 255.7 254.9 229.6 302.6 256.9 349 229.6 390.6 253 390.6 310.4 437.9 337.1 437.9 390.3 483.1 421.2 485 473.5 440.1 501.5 438.6 556.5 392.4 586.5 391.9 642.6 349.6 670.7 302.6 639.7 256 668.5 212.9 645.3 212.9 588.9 166.6 561.5 166.6 506 119.8 477.4 119.8 422.9 166.6 394.3 167.2 339.7 215.4 310.3 212.9 255.7"/>
  <text class="st1" transform="translate(514.4 924.3) scale(.7 1)"><tspan x="0" y="0">16 </tspan></text>
</svg>