<?xml version="1.0" encoding="UTF-8"?>
<svg id="Layer_1" xmlns="http://www.w3.org/2000/svg" version="1.1" viewBox="0 0 595.3 936">
  <!-- Generator: Adobe Illustrator 29.0.1, SVG Export Plug-In . SVG Version: 2.1.0 Build 192)  -->
  <defs>
    <style>
      .st0 {
        fill: #00c1f3;
        stroke: #231f20;
        stroke-miterlimit: 10;
      }

      .st1 {
        fill: #231f20;
        font-family: MyriadPro-Regular, 'Myriad Pro';
        font-size: 20.7px;
      }
    </style>
  </defs>
  <polygon class="st0" points="208.1 162.3 163 188.6 163.3 240.8 208.6 266.6 253.7 240.3 253.4 188.1 208.1 162.3"/>
  <polygon class="st0" points="302.4 162.3 257.3 188.6 257.6 240.8 302.9 266.6 348 240.3 347.7 188.1 302.4 162.3"/>
  <polygon class="st0" points="302.2 51.8 257.1 78.1 257.4 130.3 302.7 156.1 347.8 129.8 347.5 77.6 302.2 51.8"/>
  <polygon class="st0" points="396.6 162.3 351.6 188.6 351.8 240.8 397.2 266.6 442.2 240.3 442 188.1 396.6 162.3"/>
  <polygon class="st0" points="161 246.8 115.9 273.1 116.2 325.3 161.5 351.2 206.6 324.9 206.3 272.7 161 246.8"/>
  <polygon class="st0" points="443.8 246.8 398.7 273.1 399 325.3 444.3 351.2 489.4 324.9 489.1 272.7 443.8 246.8"/>
  <polygon class="st0" points="113.8 331.2 68.8 357.5 69 409.7 114.4 435.6 159.4 409.3 159.2 357.1 113.8 331.2"/>
  <polygon class="st0" points="490.9 331.2 445.8 357.5 446.1 409.7 491.4 435.6 536.5 409.3 536.2 357.1 490.9 331.2"/>
  <polygon class="st0" points="537.6 416.3 492.6 442.7 492.8 494.9 538.2 520.7 583.2 494.4 583 442.2 537.6 416.3"/>
  <polygon class="st0" points="66.7 415.8 21.6 442.1 21.9 494.3 67.2 520.2 112.3 493.8 112 441.6 66.7 415.8"/>
  <polygon class="st0" points="113.8 500.1 68.8 526.5 69 578.7 114.4 604.5 159.4 578.2 159.2 526 113.8 500.1"/>
  <polygon class="st0" points="490.9 500.1 445.8 526.5 446.1 578.7 491.4 604.5 536.5 578.2 536.2 526 490.9 500.1"/>
  <polygon class="st0" points="161 584.7 115.9 611 116.2 663.2 161.5 689.1 206.6 662.8 206.3 610.6 161 584.7"/>
  <polygon class="st0" points="443.8 584.7 398.7 611 399 663.2 444.3 689.1 489.4 662.8 489.1 610.6 443.8 584.7"/>
  <polygon class="st0" points="208.1 669.1 163 695.4 163.3 747.6 208.6 773.5 253.7 747.2 253.4 695 208.1 669.1"/>
  <polygon class="st0" points="302.4 669.1 257.3 695.4 257.6 747.6 302.9 773.5 348 747.2 347.7 695 302.4 669.1"/>
  <polygon class="st0" points="396.6 669.1 351.6 695.4 351.8 747.6 397.2 773.5 442.2 747.2 442 695 396.6 669.1"/>
  <polygon class="st0" points="212.4 273 254.6 246.8 302.6 274.3 349.3 246.8 391 270.4 391 328 438.7 354.8 438.7 408.3 484 439.5 486 492 440.9 520.2 439.4 575.5 392.9 605.6 392.4 662.1 349.8 690.3 302.6 659.1 255.7 688 212.4 664.7 212.4 608 165.9 580.5 165.9 524.6 118.9 495.9 118.9 441.1 165.9 412.4 166.5 357.5 214.9 327.9 212.4 273"/>
  <text class="st1" transform="translate(514.4 924.3) scale(.7 1)"><tspan x="0" y="0">17</tspan></text>
</svg>