<?xml version="1.0" encoding="UTF-8"?>
<svg id="Layer_1" xmlns="http://www.w3.org/2000/svg" version="1.1" viewBox="0 0 595.3 936">
  <!-- Generator: Adobe Illustrator 29.0.1, SVG Export Plug-In . SVG Version: 2.1.0 Build 192)  -->
  <defs>
    <style>
      .st0 {
        fill: #00c1f3;
        stroke: #231f20;
        stroke-miterlimit: 10;
      }

      .st1 {
        fill: #231f20;
        font-family: MyriadPro-Regular, 'Myriad Pro';
        font-size: 20.7px;
      }
    </style>
  </defs>
  <polygon class="st0" points="207.2 174.6 161.8 201.1 162 253.8 207.8 279.9 253.2 253.3 253 200.7 207.2 174.6"/>
  <polygon class="st0" points="302.3 174.6 256.9 201.1 257.1 253.8 302.9 279.9 348.3 253.3 348.1 200.7 302.3 174.6"/>
  <polygon class="st0" points="349.7 92.3 304.2 118.8 304.5 171.5 350.2 197.6 395.7 171 395.4 118.4 349.7 92.3"/>
  <polygon class="st0" points="254.8 92.3 209.3 118.8 209.6 171.5 255.3 197.6 300.8 171 300.5 118.4 254.8 92.3"/>
  <polygon class="st0" points="397.4 174.6 352 201.1 352.2 253.8 398 279.9 443.4 253.3 443.2 200.7 397.4 174.6"/>
  <polygon class="st0" points="159.7 259.9 114.2 286.4 114.5 339.1 160.2 365.2 205.7 338.6 205.4 286 159.7 259.9"/>
  <polygon class="st0" points="445 259.9 399.5 286.4 399.8 339.1 445.5 365.2 491 338.6 490.7 286 445 259.9"/>
  <polygon class="st0" points="112.1 345 66.7 371.6 66.9 424.2 112.7 450.3 158.1 423.8 157.9 371.1 112.1 345"/>
  <polygon class="st0" points="492.5 345 447.1 371.6 447.3 424.2 493.1 450.3 538.5 423.8 538.3 371.1 492.5 345"/>
  <polygon class="st0" points="64.6 430.3 19.1 456.9 19.4 509.5 65.1 535.6 110.6 509.1 110.3 456.4 64.6 430.3"/>
  <polygon class="st0" points="540.1 430.3 494.6 456.9 494.9 509.5 540.6 535.6 586.1 509.1 585.8 456.4 540.1 430.3"/>
  <polygon class="st0" points="112.1 515.4 66.7 542 66.9 594.7 112.7 620.8 158.1 594.2 157.9 541.5 112.1 515.4"/>
  <polygon class="st0" points="492.5 515.4 447.1 542 447.3 594.7 493.1 620.8 538.5 594.2 538.3 541.5 492.5 515.4"/>
  <polygon class="st0" points="159.7 600.8 114.2 627.3 114.5 680 160.2 706.1 205.7 679.5 205.4 626.9 159.7 600.8"/>
  <polygon class="st0" points="445 600.8 399.5 627.3 399.8 680 445.5 706.1 491 679.5 490.7 626.9 445 600.8"/>
  <polygon class="st0" points="207.2 685.9 161.8 712.4 162 765.1 207.8 791.2 253.2 764.6 253 712 207.2 685.9"/>
  <polygon class="st0" points="302.3 685.9 256.9 712.4 257.1 765.1 302.9 791.2 348.3 764.6 348.1 712 302.3 685.9"/>
  <polygon class="st0" points="397.4 685.9 352 712.4 352.2 765.1 398 791.2 443.4 764.6 443.2 712 397.4 685.9"/>
  <polygon class="st0" points="211.6 286.3 254.2 259.9 302.6 287.6 349.7 259.9 391.8 283.6 391.8 341.8 439.8 368.9 439.8 422.8 485.6 454.2 487.6 507.2 442.1 535.6 440.5 591.4 393.6 621.9 393.2 678.8 350.2 707.2 302.6 675.8 255.3 705 211.6 681.5 211.6 624.3 164.7 596.5 164.7 540.2 117.2 511.1 117.2 455.9 164.7 426.9 165.3 371.5 214.1 341.7 211.6 286.3"/>
  <text class="st1" transform="translate(514.4 924.3) scale(.7 1)"><tspan x="0" y="0">18</tspan></text>
</svg>