<?xml version="1.0" encoding="UTF-8"?>
<svg id="Layer_1" xmlns="http://www.w3.org/2000/svg" version="1.1" viewBox="0 0 595.3 936">
  <!-- Generator: Adobe Illustrator 29.0.1, SVG Export Plug-In . SVG Version: 2.1.0 Build 192)  -->
  <defs>
    <style>
      .st0 {
        fill: #00c1f3;
        stroke: #231f20;
        stroke-miterlimit: 10;
      }

      .st1 {
        fill: #231f20;
        font-family: MyriadPro-Regular, 'Myriad Pro';
        font-size: 20.7px;
      }
    </style>
  </defs>
  <polygon class="st0" points="255 125.3 209.7 151.8 210 204.2 255.5 230.2 300.8 203.7 300.5 151.3 255 125.3"/>
  <polygon class="st0" points="349.7 125.3 304.4 151.8 304.7 204.2 350.2 230.2 395.5 203.7 395.2 151.3 349.7 125.3"/>
  <polygon class="st0" points="207.6 210.1 162.3 236.5 162.6 289 208.2 315 253.4 288.5 253.2 236.1 207.6 210.1"/>
  <polygon class="st0" points="110.7 210.1 65.4 236.5 65.6 289 111.2 315 156.5 288.5 156.2 236.1 110.7 210.1"/>
  <polygon class="st0" points="302.3 210.1 257.1 236.5 257.3 289 302.9 315 348.1 288.5 347.9 236.1 302.3 210.1"/>
  <polygon class="st0" points="397.1 210.1 351.8 236.5 352 289 397.6 315 442.9 288.5 442.6 236.1 397.1 210.1"/>
  <polygon class="st0" points="491.8 210.1 446.5 236.5 446.7 289 492.3 315 537.6 288.5 537.3 236.1 491.8 210.1"/>
  <polygon class="st0" points="160.3 295.1 115 321.5 115.3 373.9 160.8 399.9 206.1 373.5 205.8 321.1 160.3 295.1"/>
  <polygon class="st0" points="444.4 295.1 399.1 321.5 399.4 373.9 444.9 399.9 490.2 373.5 490 321.1 444.4 295.1"/>
  <polygon class="st0" points="112.9 379.8 67.6 406.3 67.9 458.7 113.4 484.7 158.7 458.3 158.5 405.8 112.9 379.8"/>
  <polygon class="st0" points="491.8 379.8 446.5 406.3 446.7 458.7 492.3 484.7 537.6 458.3 537.3 405.8 491.8 379.8"/>
  <polygon class="st0" points="65.6 464.8 20.3 491.2 20.5 543.7 66.1 569.7 111.4 543.2 111.1 490.8 65.6 464.8"/>
  <polygon class="st0" points="539.1 464.8 493.8 491.2 494.1 543.7 539.6 569.7 584.9 543.2 584.7 490.8 539.1 464.8"/>
  <polygon class="st0" points="112.9 549.6 67.6 576 67.9 628.5 113.4 654.5 158.7 628 158.5 575.6 112.9 549.6"/>
  <polygon class="st0" points="491.8 549.6 446.5 576 446.7 628.5 492.3 654.5 537.6 628 537.3 575.6 491.8 549.6"/>
  <polygon class="st0" points="160.3 634.6 115 661 115.3 713.4 160.8 739.4 206.1 713 205.8 660.5 160.3 634.6"/>
  <polygon class="st0" points="444.4 634.6 399.1 661 399.4 713.4 444.9 739.4 490.2 713 490 660.5 444.4 634.6"/>
  <polygon class="st0" points="207.6 719.3 162.3 745.8 162.6 798.2 208.2 824.2 253.4 797.8 253.2 745.3 207.6 719.3"/>
  <polygon class="st0" points="302.3 719.3 257.1 745.8 257.3 798.2 302.9 824.2 348.1 797.8 347.9 745.3 302.3 719.3"/>
  <polygon class="st0" points="397.1 719.3 351.8 745.8 352 798.2 397.6 824.2 442.9 797.8 442.6 745.3 397.1 719.3"/>
  <polygon class="st0" points="212 321.4 254.4 295.1 302.6 322.6 349.5 295.1 391.4 318.7 391.4 376.7 439.3 403.6 439.3 457.3 484.9 488.6 486.8 541.4 441.5 569.7 440 625.3 393.2 655.6 392.8 712.3 350 740.6 302.6 709.3 255.5 738.4 212 714.9 212 658 165.3 630.3 165.3 574.2 118 545.3 118 490.3 165.3 461.4 165.8 406.3 214.5 376.5 212 321.4"/>
  <text class="st1" transform="translate(514.4 924.3) scale(.7 1)"><tspan x="0" y="0">20</tspan></text>
</svg>