<?xml version="1.0" encoding="UTF-8"?>
<svg id="Layer_1" xmlns="http://www.w3.org/2000/svg" version="1.1" viewBox="0 0 595.3 936">
  <!-- Generator: Adobe Illustrator 29.0.1, SVG Export Plug-In . SVG Version: 2.1.0 Build 192)  -->
  <defs>
    <style>
      .st0 {
        fill: #00c1f3;
        stroke: #231f20;
        stroke-miterlimit: 10;
      }

      .st1 {
        fill: #231f20;
        font-family: MyriadPro-Regular, 'Myriad Pro';
        font-size: 20.7px;
      }
    </style>
  </defs>
  <polygon class="st0" points="257.3 124.1 215.2 150.2 215.4 201.8 257.8 227.4 299.9 201.3 299.7 149.7 257.3 124.1"/>
  <polygon class="st0" points="345.5 124.1 303.3 150.2 303.6 201.8 346 227.4 388.1 201.3 387.9 149.7 345.5 124.1"/>
  <polygon class="st0" points="213.2 207.6 171.1 233.6 171.3 285.2 213.7 310.8 255.9 284.8 255.6 233.2 213.2 207.6"/>
  <polygon class="st0" points="122.1 207.6 79.9 233.6 80.1 285.2 122.5 310.8 164.7 284.8 164.4 233.2 122.1 207.6"/>
  <polygon class="st0" points="78.8 291.5 36.7 317.5 36.9 369.1 79.3 394.7 121.5 368.7 121.2 317.1 78.8 291.5"/>
  <polygon class="st0" points="301.4 207.6 259.2 233.6 259.5 285.2 301.9 310.8 344 284.8 343.8 233.2 301.4 207.6"/>
  <polygon class="st0" points="389.5 207.6 347.4 233.6 347.6 285.2 390 310.8 432.2 284.8 431.9 233.2 389.5 207.6"/>
  <polygon class="st0" points="480.4 207.6 438.2 233.6 438.5 285.2 480.8 310.8 523 284.8 522.8 233.2 480.4 207.6"/>
  <polygon class="st0" points="523.3 289.8 481.1 315.8 481.4 367.4 523.7 393 565.9 367 565.7 315.3 523.3 289.8"/>
  <polygon class="st0" points="169.2 291.2 127 317.2 127.3 368.9 169.6 394.4 211.8 368.4 211.6 316.8 169.2 291.2"/>
  <polygon class="st0" points="433.6 291.2 391.5 317.2 391.7 368.9 434.1 394.4 476.3 368.4 476 316.8 433.6 291.2"/>
  <polygon class="st0" points="125.1 374.7 82.9 400.7 83.2 452.3 125.6 477.9 167.7 451.9 167.5 400.3 125.1 374.7"/>
  <polygon class="st0" points="477.7 374.7 435.6 400.7 435.8 452.3 478.2 477.9 520.3 451.9 520.1 400.3 477.7 374.7"/>
  <polygon class="st0" points="81 458.3 38.9 484.3 39.1 535.9 81.5 561.5 123.6 535.5 123.4 483.9 81 458.3"/>
  <polygon class="st0" points="521.8 458.3 479.6 484.3 479.9 535.9 522.3 561.5 564.4 535.5 564.2 483.9 521.8 458.3"/>
  <polygon class="st0" points="125.1 541.7 82.9 567.8 83.2 619.4 125.6 645 167.7 618.9 167.5 567.3 125.1 541.7"/>
  <polygon class="st0" points="477.7 541.7 435.6 567.8 435.8 619.4 478.2 645 520.3 618.9 520.1 567.3 477.7 541.7"/>
  <polygon class="st0" points="169.2 625.4 127 651.4 127.3 703 169.6 728.6 211.8 702.6 211.6 651 169.2 625.4"/>
  <polygon class="st0" points="433.6 625.4 391.5 651.4 391.7 703 434.1 728.6 476.3 702.6 476 651 433.6 625.4"/>
  <polygon class="st0" points="213.2 708.8 171.1 734.8 171.3 786.5 213.7 812 255.9 786 255.6 734.4 213.2 708.8"/>
  <polygon class="st0" points="301.4 708.8 259.2 734.8 259.5 786.5 301.9 812 344 786 343.8 734.4 301.4 708.8"/>
  <polygon class="st0" points="389.5 708.8 347.4 734.8 347.6 786.5 390 812 432.2 786 431.9 734.4 389.5 708.8"/>
  <polygon class="st0" points="217.3 317.1 256.7 291.2 301.6 318.4 345.3 291.2 384.3 314.5 384.3 371.5 428.8 398.1 428.8 450.9 471.3 481.7 473.1 533.7 430.9 561.5 429.5 616.2 386 646.1 385.6 701.9 345.8 729.7 301.6 699 257.8 727.5 217.3 704.5 217.3 648.4 173.8 621.2 173.8 566 129.8 537.5 129.8 483.4 173.8 454.9 174.3 400.7 219.6 371.4 217.3 317.1"/>
  <text class="st1" transform="translate(514.4 924.3) scale(.7 1)"><tspan x="0" y="0">22</tspan></text>
</svg>