<?xml version="1.0" encoding="UTF-8"?>
<svg id="Layer_1" xmlns="http://www.w3.org/2000/svg" version="1.1" viewBox="0 0 595.3 936">
  <!-- Generator: Adobe Illustrator 29.0.1, SVG Export Plug-In . SVG Version: 2.1.0 Build 192)  -->
  <defs>
    <style>
      .st0 {
        fill: #00c1f3;
        stroke: #231f20;
        stroke-miterlimit: 10;
      }

      .st1 {
        fill: #231f20;
        font-family: MyriadPro-Regular, 'Myriad Pro';
        font-size: 20.7px;
      }
    </style>
  </defs>
  <polygon class="st0" points="252.8 81.3 208.1 107.3 208.4 159 253.3 184.6 297.9 158.6 297.7 106.9 252.8 81.3"/>
  <polygon class="st0" points="156 81.3 111.4 107.3 111.7 159 156.6 184.6 201.2 158.6 200.9 106.9 156 81.3"/>
  <polygon class="st0" points="346.1 81.3 301.5 107.3 301.7 159 346.6 184.6 391.2 158.6 391 106.9 346.1 81.3"/>
  <polygon class="st0" points="439.4 81.3 394.8 107.3 395.1 159 440 184.6 484.6 158.6 484.3 106.9 439.4 81.3"/>
  <polygon class="st0" points="206.1 164.8 161.5 190.9 161.7 242.6 206.6 268.2 251.2 242.1 251 190.5 206.1 164.8"/>
  <polygon class="st0" points="110.3 164.8 65.6 190.9 65.9 242.6 110.8 268.2 155.4 242.1 155.1 190.5 110.3 164.8"/>
  <polygon class="st0" points="299.4 164.8 254.8 190.9 255.1 242.6 299.9 268.2 344.6 242.1 344.3 190.5 299.4 164.8"/>
  <polygon class="st0" points="392.8 164.8 348.1 190.9 348.4 242.6 393.3 268.2 437.9 242.1 437.7 190.5 392.8 164.8"/>
  <polygon class="st0" points="488.9 164.8 444.3 190.9 444.6 242.6 489.4 268.2 534.1 242.1 533.8 190.5 488.9 164.8"/>
  <polygon class="st0" points="159.4 248.6 114.8 274.6 115.1 326.3 159.9 351.9 204.6 325.9 204.3 274.2 159.4 248.6"/>
  <polygon class="st0" points="59.6 248.6 15 274.6 15.3 326.3 60.1 351.9 104.8 325.9 104.5 274.2 59.6 248.6"/>
  <polygon class="st0" points="439.4 248.6 394.8 274.6 395.1 326.3 440 351.9 484.6 325.9 484.3 274.2 439.4 248.6"/>
  <polygon class="st0" points="538 248.6 493.4 274.6 493.6 326.3 538.5 351.9 583.1 325.9 582.9 274.2 538 248.6"/>
  <polygon class="st0" points="112.8 332.1 68.1 358.2 68.4 409.9 113.3 435.5 157.9 409.4 157.6 357.8 112.8 332.1"/>
  <polygon class="st0" points="486.1 332.1 441.5 358.2 441.7 409.9 486.6 435.5 531.3 409.4 531 357.8 486.1 332.1"/>
  <polygon class="st0" points="66.1 415.9 21.5 441.9 21.7 493.6 66.6 519.2 111.2 493.2 111 441.5 66.1 415.9"/>
  <polygon class="st0" points="532.8 415.9 488.2 441.9 488.4 493.6 533.3 519.2 577.9 493.2 577.7 441.5 532.8 415.9"/>
  <polygon class="st0" points="112.8 499.4 68.1 525.5 68.4 577.2 113.3 602.8 157.9 576.7 157.6 525 112.8 499.4"/>
  <polygon class="st0" points="486.1 499.4 441.5 525.5 441.7 577.2 486.6 602.8 531.3 576.7 531 525 486.1 499.4"/>
  <polygon class="st0" points="159.4 583.2 114.8 609.2 115.1 660.9 159.9 686.5 204.6 660.5 204.3 608.8 159.4 583.2"/>
  <polygon class="st0" points="439.4 583.2 394.8 609.2 395.1 660.9 440 686.5 484.6 660.5 484.3 608.8 439.4 583.2"/>
  <polygon class="st0" points="206.1 666.7 161.5 692.8 161.7 744.5 206.6 770.1 251.2 744 251 692.3 206.1 666.7"/>
  <polygon class="st0" points="299.4 666.7 254.8 692.8 255.1 744.5 299.9 770.1 344.6 744 344.3 692.3 299.4 666.7"/>
  <polygon class="st0" points="392.8 666.7 348.1 692.8 348.4 744.5 393.3 770.1 437.9 744 437.7 692.3 392.8 666.7"/>
  <polygon class="st0" points="210.4 274.5 252.1 248.6 299.7 275.8 345.9 248.6 387.2 271.9 387.2 329 434.4 355.5 434.4 408.5 479.3 439.3 481.3 491.3 436.6 519.2 435.1 574 389 603.9 388.6 659.7 346.4 687.7 299.7 656.8 253.2 685.5 210.4 662.4 210.4 606.2 164.3 579 164.3 523.7 117.7 495.2 117.7 441 164.3 412.5 164.9 358.2 212.9 328.9 210.4 274.5"/>
  <text class="st1" transform="translate(514.4 924.3) scale(.7 1)"><tspan x="0" y="0">24</tspan></text>
</svg>