<?xml version="1.0" encoding="UTF-8"?>
<svg id="Layer_1" xmlns="http://www.w3.org/2000/svg" version="1.1" viewBox="0 0 595.3 936">
  <!-- Generator: Adobe Illustrator 29.0.1, SVG Export Plug-In . SVG Version: 2.1.0 Build 192)  -->
  <defs>
    <style>
      .st0 {
        fill: #00c1f3;
        stroke: #231f20;
        stroke-miterlimit: 10;
      }

      .st1 {
        fill: #231f20;
        font-family: MyriadPro-Regular, 'Myriad Pro';
        font-size: 20.7px;
      }
    </style>
  </defs>
  <polygon class="st0" points="160 148.4 115 174.7 115.3 226.9 160.6 252.8 205.6 226.5 205.3 174.3 160 148.4"/>
  <polygon class="st0" points="254.2 148.4 209.2 174.7 209.5 226.9 254.8 252.8 299.8 226.5 299.5 174.3 254.2 148.4"/>
  <polygon class="st0" points="348.4 148.4 303.4 174.7 303.7 226.9 349 252.8 394 226.5 393.7 174.3 348.4 148.4"/>
  <polygon class="st0" points="442.6 148.4 397.6 174.7 397.9 226.9 443.2 252.8 488.2 226.5 487.9 174.3 442.6 148.4"/>
  <polygon class="st0" points="202.8 232.8 157.8 259.1 158 311.2 203.3 337.1 248.4 310.8 248.1 258.6 202.8 232.8"/>
  <polygon class="st0" points="299.2 232.8 254.1 259.1 254.4 311.2 299.7 337.1 344.7 310.8 344.5 258.6 299.2 232.8"/>
  <polygon class="st0" points="395.5 232.8 350.5 259.1 350.7 311.2 396 337.1 441.1 310.8 440.8 258.6 395.5 232.8"/>
  <polygon class="st0" points="491.9 232.8 446.8 259.1 447.1 311.2 492.4 337.1 537.4 310.8 537.2 258.6 491.9 232.8"/>
  <polygon class="st0" points="106.4 232.8 61.4 259.1 61.7 311.2 107 337.1 152 310.8 151.7 258.6 106.4 232.8"/>
  <polygon class="st0" points="207.1 63.9 162.1 90.2 162.4 142.4 207.7 168.3 252.7 142 252.4 89.8 207.1 63.9"/>
  <polygon class="st0" points="301.3 63.9 256.3 90.2 256.6 142.4 301.9 168.3 346.9 142 346.6 89.8 301.3 63.9"/>
  <polygon class="st0" points="395.5 63.9 350.5 90.2 350.8 142.4 396.1 168.3 441.1 142 440.8 89.8 395.5 63.9"/>
  <polygon class="st0" points="160 317.3 115 343.6 115.3 395.7 160.6 421.6 205.6 395.3 205.3 343.1 160 317.3"/>
  <polygon class="st0" points="442.6 317.3 397.6 343.6 397.9 395.7 443.2 421.6 488.2 395.3 487.9 343.1 442.6 317.3"/>
  <polygon class="st0" points="113 401.6 67.9 427.9 68.2 480.1 113.5 505.9 158.5 479.6 158.2 427.4 113 401.6"/>
  <polygon class="st0" points="489.7 401.6 444.7 427.9 445 480.1 490.3 505.9 535.3 479.6 535 427.4 489.7 401.6"/>
  <polygon class="st0" points="65.9 486.1 20.8 512.4 21.1 564.6 66.4 590.4 111.4 564.1 111.1 512 65.9 486.1"/>
  <polygon class="st0" points="536.8 486.1 491.8 512.4 492.1 564.6 537.4 590.4 582.4 564.1 582.1 512 536.8 486.1"/>
  <polygon class="st0" points="113 570.4 67.9 596.7 68.2 648.9 113.5 674.7 158.5 648.4 158.2 596.3 113 570.4"/>
  <polygon class="st0" points="489.7 570.4 444.7 596.7 445 648.9 490.3 674.7 535.3 648.4 535 596.3 489.7 570.4"/>
  <polygon class="st0" points="160 654.9 115 681.2 115.3 733.4 160.6 759.2 205.6 732.9 205.3 680.8 160 654.9"/>
  <polygon class="st0" points="442.6 654.9 397.6 681.2 397.9 733.4 443.2 759.2 488.2 732.9 487.9 680.8 442.6 654.9"/>
  <polygon class="st0" points="207.1 739.2 162.1 765.5 162.4 817.7 207.7 843.6 252.7 817.3 252.4 765.1 207.1 739.2"/>
  <polygon class="st0" points="301.3 739.2 256.3 765.5 256.6 817.7 301.9 843.6 346.9 817.3 346.6 765.1 301.3 739.2"/>
  <polygon class="st0" points="395.5 739.2 350.5 765.5 350.8 817.7 396.1 843.6 441.1 817.3 440.8 765.1 395.5 739.2"/>
  <polygon class="st0" points="211.5 343.5 253.6 317.3 301.6 344.7 348.2 317.3 389.9 340.8 389.9 398.4 437.5 425.2 437.5 478.7 482.9 509.8 484.8 562.3 439.8 590.4 438.2 645.7 391.8 675.8 391.3 732.2 348.8 760.4 301.6 729.3 254.7 758.2 211.5 734.9 211.5 678.2 165 650.7 165 594.9 118 566.2 118 511.5 165 482.7 165.6 427.9 214 398.3 211.5 343.5"/>
  <text class="st1" transform="translate(514.4 924.3) scale(.7 1)"><tspan x="0" y="0">25</tspan></text>
</svg>