<?xml version="1.0" encoding="UTF-8"?>
<svg id="Layer_1" xmlns="http://www.w3.org/2000/svg" version="1.1" viewBox="0 0 595.3 936">
  <!-- Generator: Adobe Illustrator 29.0.1, SVG Export Plug-In . SVG Version: 2.1.0 Build 192)  -->
  <defs>
    <style>
      .st0 {
        fill: #00c1f3;
        stroke: #231f20;
        stroke-miterlimit: 10;
      }

      .st1 {
        fill: #231f20;
        font-family: MyriadPro-Regular, 'Myriad Pro';
        font-size: 20.7px;
      }
    </style>
  </defs>
  <polygon class="st0" points="172.9 164.5 134.8 186.8 135 231 173.4 252.9 211.5 230.6 211.3 186.4 172.9 164.5"/>
  <polygon class="st0" points="252.7 164.5 214.6 186.8 214.8 231 253.2 252.9 291.3 230.6 291.1 186.4 252.7 164.5"/>
  <polygon class="st0" points="332.5 164.5 294.4 186.8 294.6 231 333 252.9 371.1 230.6 370.9 186.4 332.5 164.5"/>
  <polygon class="st0" points="412.4 164.5 374.2 186.8 374.4 231 412.8 252.9 451 230.6 450.7 186.4 412.4 164.5"/>
  <polygon class="st0" points="133 236 94.8 258.2 95.1 302.4 133.4 324.3 171.6 302.1 171.4 257.9 133 236"/>
  <polygon class="st0" points="212.8 236 174.7 258.2 174.9 302.4 213.3 324.3 251.4 302.1 251.2 257.9 212.8 236"/>
  <polygon class="st0" points="292.6 236 254.5 258.2 254.7 302.4 293.1 324.3 331.2 302.1 331 257.9 292.6 236"/>
  <polygon class="st0" points="372.4 236 334.3 258.2 334.5 302.4 372.9 324.3 411 302.1 410.8 257.9 372.4 236"/>
  <polygon class="st0" points="452.3 236 414.1 258.2 414.3 302.4 452.7 324.3 490.9 302.1 490.6 257.9 452.3 236"/>
  <polygon class="st0" points="212.8 92.9 174.7 115.2 174.9 159.4 213.3 181.3 251.4 159 251.2 114.8 212.8 92.9"/>
  <polygon class="st0" points="292.6 92.9 254.5 115.2 254.7 159.4 293.1 181.3 331.2 159 331 114.8 292.6 92.9"/>
  <polygon class="st0" points="372.4 92.9 334.3 115.2 334.5 159.4 372.9 181.3 411 159 410.8 114.8 372.4 92.9"/>
  <polygon class="st0" points="172.9 307.6 134.8 329.8 135 374 173.4 395.9 211.5 373.7 211.3 329.5 172.9 307.6"/>
  <polygon class="st0" points="412.4 307.6 374.2 329.8 374.4 374 412.8 395.9 451 373.7 450.7 329.5 412.4 307.6"/>
  <polygon class="st0" points="133 379 94.8 401.3 95.1 445.5 133.4 467.4 171.6 445.1 171.4 400.9 133 379"/>
  <polygon class="st0" points="452.3 379 414.1 401.3 414.3 445.5 452.7 467.4 490.9 445.1 490.6 400.9 452.3 379"/>
  <polygon class="st0" points="93.1 450.6 54.9 472.9 55.2 517.1 93.5 539 131.7 516.7 131.5 472.5 93.1 450.6"/>
  <polygon class="st0" points="492.2 450.6 454 472.9 454.2 517.1 492.6 539 530.8 516.7 530.5 472.5 492.2 450.6"/>
  <polygon class="st0" points="133 522.1 94.8 544.3 95.1 588.5 133.4 610.4 171.6 588.2 171.4 544 133 522.1"/>
  <polygon class="st0" points="452.3 522.1 414.1 544.3 414.3 588.5 452.7 610.4 490.9 588.2 490.6 544 452.3 522.1"/>
  <polygon class="st0" points="172.9 593.7 134.8 615.9 135 660.1 173.4 682 211.5 659.8 211.3 615.6 172.9 593.7"/>
  <polygon class="st0" points="412.4 593.7 374.2 615.9 374.4 660.1 412.8 682 451 659.8 450.7 615.6 412.4 593.7"/>
  <polygon class="st0" points="212.8 665.1 174.7 687.4 174.9 731.6 213.3 753.5 251.4 731.2 251.2 687 212.8 665.1"/>
  <polygon class="st0" points="292.6 665.1 254.5 687.4 254.7 731.6 293.1 753.5 331.2 731.2 331 687 292.6 665.1"/>
  <polygon class="st0" points="372.4 665.1 334.3 687.4 334.5 731.6 372.9 753.5 411 731.2 410.8 687 372.4 665.1"/>
  <polygon class="st0" points="252.7 736.7 214.6 759 214.8 803.2 253.2 825.1 291.3 802.8 291.1 758.6 252.7 736.7"/>
  <polygon class="st0" points="332.5 736.7 294.4 759 294.6 803.2 333 825.1 371.1 802.8 370.9 758.6 332.5 736.7"/>
  <polygon class="st0" points="216.5 329.7 252.2 307.6 292.9 330.8 332.4 307.6 367.7 327.5 367.7 376.3 408 399 408 444.3 446.4 470.7 448.1 515.1 409.9 539 408.6 585.8 369.2 611.4 368.9 659.1 332.8 683 292.9 656.7 253.1 681.1 216.5 661.4 216.5 613.4 177.1 590.1 177.1 542.8 137.3 518.4 137.3 472.1 177.1 447.7 177.6 401.3 218.6 376.2 216.5 329.7"/>
  <text class="st1" transform="translate(514.4 924.3) scale(.7 1)"><tspan x="0" y="0">27</tspan></text>
</svg>