<?xml version="1.0" encoding="UTF-8"?>
<svg id="Layer_1" xmlns="http://www.w3.org/2000/svg" version="1.1" viewBox="0 0 595.3 936">
  <!-- Generator: Adobe Illustrator 29.0.1, SVG Export Plug-In . SVG Version: 2.1.0 Build 192)  -->
  <defs>
    <style>
      .st0 {
        fill: #00c1f3;
        stroke: #231f20;
        stroke-miterlimit: 10;
      }

      .st1 {
        fill: #231f20;
        font-family: MyriadPro-Regular, 'Myriad Pro';
        font-size: 20.7px;
      }
    </style>
  </defs>
  <polygon class="st0" points="182.7 164.5 144.5 186.8 144.7 231 183.1 252.9 221.3 230.6 221 186.4 182.7 164.5"/>
  <polygon class="st0" points="262.5 164.5 224.3 186.8 224.5 231 262.9 252.9 301.1 230.6 300.9 186.4 262.5 164.5"/>
  <polygon class="st0" points="342.3 164.5 304.1 186.8 304.3 231 342.7 252.9 380.9 230.6 380.7 186.4 342.3 164.5"/>
  <polygon class="st0" points="422.1 164.5 383.9 186.8 384.2 231 422.5 252.9 460.7 230.6 460.5 186.4 422.1 164.5"/>
  <polygon class="st0" points="142.8 236 104.6 258.2 104.8 302.4 143.2 324.3 181.4 302.1 181.1 257.9 142.8 236"/>
  <polygon class="st0" points="222.6 236 184.4 258.2 184.6 302.4 223 324.3 261.2 302.1 261 257.9 222.6 236"/>
  <polygon class="st0" points="302.4 236 264.2 258.2 264.4 302.4 302.8 324.3 341 302.1 340.8 257.9 302.4 236"/>
  <polygon class="st0" points="382.2 236 344 258.2 344.3 302.4 382.6 324.3 420.8 302.1 420.6 257.9 382.2 236"/>
  <polygon class="st0" points="462 236 423.8 258.2 424.1 302.4 462.4 324.3 500.6 302.1 500.4 257.9 462 236"/>
  <polygon class="st0" points="302.4 93.6 264.2 115.8 264.4 160 302.8 181.9 341 159.7 340.8 115.5 302.4 93.6"/>
  <polygon class="st0" points="222.6 93.6 184.4 115.8 184.6 160 223 181.9 261.2 159.7 261 115.5 222.6 93.6"/>
  <polygon class="st0" points="503.4 306.5 465.2 328.7 465.5 372.9 503.8 394.8 542 372.6 541.8 328.4 503.4 306.5"/>
  <polygon class="st0" points="182.7 307.6 144.5 329.8 144.7 374 183.1 395.9 221.3 373.7 221 329.5 182.7 307.6"/>
  <polygon class="st0" points="422.1 307.6 383.9 329.8 384.2 374 422.5 395.9 460.7 373.7 460.5 329.5 422.1 307.6"/>
  <polygon class="st0" points="142.8 379 104.6 401.3 104.8 445.5 143.2 467.4 181.4 445.1 181.1 400.9 142.8 379"/>
  <polygon class="st0" points="462 379 423.8 401.3 424.1 445.5 462.4 467.4 500.6 445.1 500.4 400.9 462 379"/>
  <polygon class="st0" points="102.9 450.6 64.7 472.9 64.9 517.1 103.3 539 141.5 516.7 141.2 472.5 102.9 450.6"/>
  <polygon class="st0" points="501.9 450.6 463.8 472.9 464 517.1 502.4 539 540.5 516.7 540.3 472.5 501.9 450.6"/>
  <polygon class="st0" points="142.8 522.1 104.6 544.3 104.8 588.5 143.2 610.4 181.4 588.2 181.1 544 142.8 522.1"/>
  <polygon class="st0" points="462 522.1 423.8 544.3 424.1 588.5 462.4 610.4 500.6 588.2 500.4 544 462 522.1"/>
  <polygon class="st0" points="182.7 593.7 144.5 615.9 144.7 660.1 183.1 682 221.3 659.8 221 615.6 182.7 593.7"/>
  <polygon class="st0" points="422.1 593.7 383.9 615.9 384.2 660.1 422.5 682 460.7 659.8 460.5 615.6 422.1 593.7"/>
  <polygon class="st0" points="222.6 665.1 184.4 687.4 184.6 731.6 223 753.5 261.2 731.2 261 687 222.6 665.1"/>
  <polygon class="st0" points="302.4 665.1 264.2 687.4 264.4 731.6 302.8 753.5 341 731.2 340.8 687 302.4 665.1"/>
  <polygon class="st0" points="382.2 665.1 344 687.4 344.3 731.6 382.6 753.5 420.8 731.2 420.6 687 382.2 665.1"/>
  <polygon class="st0" points="302.2 759.5 264.1 781.8 264.3 826 302.7 847.9 340.8 825.6 340.6 781.4 302.2 759.5"/>
  <polygon class="st0" points="382.2 93.6 344 115.8 344.3 160 382.6 181.9 420.8 159.7 420.6 115.5 382.2 93.6"/>
  <polygon class="st0" points="101 307.6 62.9 329.8 63.1 374 101.5 395.9 139.6 373.7 139.4 329.5 101 307.6"/>
  <polygon class="st0" points="226.2 329.7 261.9 307.6 302.6 330.8 342.1 307.6 377.5 327.5 377.5 376.3 417.8 399 417.8 444.3 456.2 470.7 457.9 515.1 419.7 539 418.4 585.8 379 611.4 378.6 659.1 342.6 683 302.6 656.7 262.9 681.1 226.2 661.4 226.2 613.4 186.9 590.1 186.9 542.8 147 518.4 147 472.1 186.9 447.7 187.3 401.3 228.4 376.2 226.2 329.7"/>
  <text class="st1" transform="translate(514.4 924.3) scale(.7 1)"><tspan x="0" y="0">28</tspan></text>
</svg>