<?xml version="1.0" encoding="UTF-8"?>
<svg id="Layer_1" xmlns="http://www.w3.org/2000/svg" version="1.1" viewBox="0 0 595.3 936">
  <!-- Generator: Adobe Illustrator 29.0.1, SVG Export Plug-In . SVG Version: 2.1.0 Build 192)  -->
  <defs>
    <style>
      .st0 {
        fill: #00c1f3;
        stroke: #231f20;
        stroke-miterlimit: 10;
      }

      .st1 {
        fill: #231f20;
        font-family: MyriadPro-Regular, 'Myriad Pro';
        font-size: 20.7px;
      }
    </style>
  </defs>
  <text class="st1" transform="translate(514.4 924.3) scale(.7 1)"><tspan x="0" y="0">33</tspan></text>
  <polygon class="st0" points="171.4 94.2 131.2 117.7 131.4 164.3 171.9 187.4 212.2 163.9 211.9 117.3 171.4 94.2"/>
  <polygon class="st0" points="255.6 94.2 215.4 117.7 215.6 164.3 256.1 187.4 296.3 163.9 296.1 117.3 255.6 94.2"/>
  <polygon class="st0" points="339.8 94.2 299.6 117.7 299.8 164.3 340.3 187.4 380.5 163.9 380.3 117.3 339.8 94.2"/>
  <polygon class="st0" points="424 94.2 383.8 117.7 384 164.3 424.5 187.4 464.7 163.9 464.5 117.3 424 94.2"/>
  <polygon class="st0" points="129.4 169.6 89.1 193.1 89.3 239.7 129.8 262.8 170.1 239.3 169.8 192.7 129.4 169.6"/>
  <polygon class="st0" points="213.5 169.6 173.3 193.1 173.5 239.7 214 262.8 254.3 239.3 254 192.7 213.5 169.6"/>
  <polygon class="st0" points="297.7 169.6 257.5 193.1 257.7 239.7 298.2 262.8 338.4 239.3 338.2 192.7 297.7 169.6"/>
  <polygon class="st0" points="381.9 169.6 341.7 193.1 341.9 239.7 382.4 262.8 422.6 239.3 422.4 192.7 381.9 169.6"/>
  <polygon class="st0" points="466.1 169.6 425.8 193.1 426.1 239.7 466.6 262.8 506.8 239.3 506.6 192.7 466.1 169.6"/>
  <polygon class="st0" points="297.7 19.4 257.5 42.9 257.7 89.5 298.2 112.6 338.4 89.1 338.2 42.5 297.7 19.4"/>
  <polygon class="st0" points="213.5 19.4 173.3 42.9 173.5 89.5 214 112.6 254.3 89.1 254 42.5 213.5 19.4"/>
  <polygon class="st0" points="509.8 243.9 469.5 267.4 469.7 314.1 510.2 337.2 550.5 313.7 550.2 267 509.8 243.9"/>
  <polygon class="st0" points="171.4 245.1 131.2 268.6 131.4 315.2 171.9 338.3 212.2 314.8 211.9 268.2 171.4 245.1"/>
  <polygon class="st0" points="424 245.1 383.8 268.6 384 315.2 424.5 338.3 464.7 314.8 464.5 268.2 424 245.1"/>
  <polygon class="st0" points="129.4 320.5 89.1 344 89.3 390.6 129.8 413.7 170.1 390.2 169.8 343.6 129.4 320.5"/>
  <polygon class="st0" points="466.1 317.5 425.8 341 426.1 387.6 466.6 410.7 506.8 387.2 506.6 340.6 466.1 317.5"/>
  <polygon class="st0" points="87.3 396 47 419.5 47.2 466.1 87.7 489.2 128 465.7 127.7 419.1 87.3 396"/>
  <polygon class="st0" points="508.2 396 467.9 419.5 468.2 466.1 508.7 489.2 548.9 465.7 548.7 419.1 508.2 396"/>
  <polygon class="st0" points="129.4 471.4 89.1 494.9 89.3 541.5 129.8 564.6 170.1 541.1 169.8 494.5 129.4 471.4"/>
  <polygon class="st0" points="466.1 471.4 425.8 494.9 426.1 541.5 466.6 564.6 506.8 541.1 506.6 494.5 466.1 471.4"/>
  <polygon class="st0" points="171.4 546.9 131.2 570.4 131.4 617 171.9 640.1 212.2 616.6 211.9 570 171.4 546.9"/>
  <polygon class="st0" points="424 546.9 383.8 570.4 384 617 424.5 640.1 464.7 616.6 464.5 570 424 546.9"/>
  <polygon class="st0" points="213.5 622.2 173.3 645.7 173.5 692.4 214 715.5 254.3 692 254 645.3 213.5 622.2"/>
  <polygon class="st0" points="297.7 622.2 257.5 645.7 257.7 692.4 298.2 715.5 338.4 692 338.2 645.3 297.7 622.2"/>
  <polygon class="st0" points="381.9 622.2 341.7 645.7 341.9 692.4 382.4 715.5 422.6 692 422.4 645.3 381.9 622.2"/>
  <polygon class="st0" points="339.8 694.6 299.6 718.1 299.8 764.7 340.3 787.8 380.5 764.3 380.3 717.7 339.8 694.6"/>
  <polygon class="st0" points="550.3 471.4 510 494.9 510.3 541.5 550.7 564.6 591 541.1 590.8 494.5 550.3 471.4"/>
  <polygon class="st0" points="45.2 471.4 4.9 494.9 5.1 541.5 45.6 564.6 85.9 541.1 85.7 494.5 45.2 471.4"/>
  <polygon class="st0" points="44.5 320.7 4.3 344.2 4.5 390.8 45 413.9 85.2 390.4 85 343.8 44.5 320.7"/>
  <polygon class="st0" points="550.3 320.5 510 344 510.3 390.6 550.7 413.7 591 390.2 590.8 343.6 550.3 320.5"/>
  <polygon class="st0" points="255.6 694.6 215.4 718.1 215.6 764.7 256.1 787.8 296.3 764.3 296.1 717.7 255.6 694.6"/>
  <polygon class="st0" points="381.9 19.4 341.7 42.9 341.9 89.5 382.4 112.6 422.6 89.1 422.4 42.5 381.9 19.4"/>
  <polygon class="st0" points="85.3 245.1 45.1 268.6 45.3 315.2 85.8 338.3 126.1 314.8 125.8 268.2 85.3 245.1"/>
  <polygon class="st0" points="217.4 268.5 255.1 245.1 298 269.6 339.6 245.1 376.9 266.1 376.9 317.6 419.4 341.6 419.4 389.3 460 417.2 461.7 464.1 421.4 489.2 420.1 538.6 378.5 565.6 378.2 615.9 340.1 641.1 298 613.3 256.1 639.1 217.4 618.3 217.4 567.7 175.9 543.1 175.9 493.2 133.9 467.5 133.9 418.7 175.9 393 176.4 344 219.7 317.5 217.4 268.5"/>
</svg>