<?xml version="1.0" encoding="UTF-8"?>
<svg id="Layer_1" xmlns="http://www.w3.org/2000/svg" version="1.1" viewBox="0 0 595.3 936">
  <!-- Generator: Adobe Illustrator 29.0.1, SVG Export Plug-In . SVG Version: 2.1.0 Build 192)  -->
  <defs>
    <style>
      .st0 {
        fill: #00c1f3;
        stroke: #231f20;
        stroke-miterlimit: 10;
      }

      .st1 {
        fill: #231f20;
        font-family: MyriadPro-Regular, 'Myriad Pro';
        font-size: 20.7px;
      }
    </style>
  </defs>
  <polygon class="st0" points="102.9 156.9 65.2 179 65.4 222.7 103.4 244.3 141.1 222.3 140.9 178.6 102.9 156.9"/>
  <polygon class="st0" points="181.9 156.9 144.1 179 144.3 222.7 182.3 244.3 220 222.3 219.8 178.6 181.9 156.9"/>
  <polygon class="st0" points="260.8 156.9 223.1 179 223.3 222.7 261.2 244.3 299 222.3 298.7 178.6 260.8 156.9"/>
  <polygon class="st0" points="339.7 156.9 302 179 302.2 222.7 340.1 244.3 377.9 222.3 377.7 178.6 339.7 156.9"/>
  <polygon class="st0" points="418.6 156.9 380.9 179 381.1 222.7 419.1 244.3 456.8 222.3 456.6 178.6 418.6 156.9"/>
  <polygon class="st0" points="497.6 156.9 459.8 179 460 222.7 498 244.3 535.7 222.3 535.5 178.6 497.6 156.9"/>
  <polygon class="st0" points="142.4 227.6 104.7 249.6 104.9 293.3 142.8 315 180.6 292.9 180.4 249.2 142.4 227.6"/>
  <polygon class="st0" points="221.3 227.6 183.6 249.6 183.8 293.3 221.8 315 259.5 292.9 259.3 249.2 221.3 227.6"/>
  <polygon class="st0" points="300.3 227.6 262.5 249.6 262.7 293.3 300.7 315 338.4 292.9 338.2 249.2 300.3 227.6"/>
  <polygon class="st0" points="379.2 227.6 341.4 249.6 341.7 293.3 379.6 315 417.4 292.9 417.1 249.2 379.2 227.6"/>
  <polygon class="st0" points="458.1 227.6 420.4 249.6 420.6 293.3 458.5 315 496.3 292.9 496.1 249.2 458.1 227.6"/>
  <polygon class="st0" points="142.4 86.1 104.7 108.2 104.9 151.9 142.8 173.5 180.6 151.5 180.4 107.8 142.4 86.1"/>
  <polygon class="st0" points="221.3 86.1 183.6 108.2 183.8 151.9 221.8 173.5 259.5 151.5 259.3 107.8 221.3 86.1"/>
  <polygon class="st0" points="300.3 86.1 262.5 108.2 262.7 151.9 300.7 173.5 338.4 151.5 338.2 107.8 300.3 86.1"/>
  <polygon class="st0" points="379.2 86.1 341.4 108.2 341.7 151.9 379.6 173.5 417.4 151.5 417.1 107.8 379.2 86.1"/>
  <polygon class="st0" points="458.1 86.1 420.4 108.2 420.6 151.9 458.5 173.5 496.3 151.5 496.1 107.8 458.1 86.1"/>
  <polygon class="st0" points="102.9 298.4 65.2 320.4 65.4 364.1 103.4 385.8 141.1 363.7 140.9 320 102.9 298.4"/>
  <polygon class="st0" points="181.9 298.4 144.1 320.4 144.3 364.1 182.3 385.8 220 363.7 219.8 320 181.9 298.4"/>
  <polygon class="st0" points="418.6 298.4 380.9 320.4 381.1 364.1 419.1 385.8 456.8 363.7 456.6 320 418.6 298.4"/>
  <polygon class="st0" points="497.6 298.4 459.8 320.4 460 364.1 498 385.8 535.7 363.7 535.5 320 497.6 298.4"/>
  <polygon class="st0" points="142.4 369 104.7 391.1 104.9 434.8 142.8 456.4 180.6 434.4 180.4 390.7 142.4 369"/>
  <polygon class="st0" points="458.1 369 420.4 391.1 420.6 434.8 458.5 456.4 496.3 434.4 496.1 390.7 458.1 369"/>
  <polygon class="st0" points="102.9 439.8 65.2 461.9 65.4 505.6 103.4 527.2 141.1 505.2 140.9 461.5 102.9 439.8"/>
  <polygon class="st0" points="497.6 439.8 459.8 461.9 460 505.6 498 527.2 535.7 505.2 535.5 461.5 497.6 439.8"/>
  <polygon class="st0" points="142.4 510.5 104.7 532.5 104.9 576.2 142.8 597.9 180.6 575.9 180.4 532.2 142.4 510.5"/>
  <polygon class="st0" points="458.1 510.5 420.4 532.5 420.6 576.2 458.5 597.9 496.3 575.9 496.1 532.2 458.1 510.5"/>
  <polygon class="st0" points="102.9 581.3 65.2 603.3 65.4 647 103.4 668.7 141.1 646.7 140.9 603 102.9 581.3"/>
  <polygon class="st0" points="181.9 581.3 144.1 603.3 144.3 647 182.3 668.7 220 646.7 219.8 603 181.9 581.3"/>
  <polygon class="st0" points="418.6 581.3 380.9 603.3 381.1 647 419.1 668.7 456.8 646.7 456.6 603 418.6 581.3"/>
  <polygon class="st0" points="497.6 581.3 459.8 603.3 460 647 498 668.7 535.7 646.7 535.5 603 497.6 581.3"/>
  <polygon class="st0" points="142.4 652 104.7 674 104.9 717.7 142.8 739.4 180.6 717.3 180.4 673.6 142.4 652"/>
  <polygon class="st0" points="221.3 652 183.6 674 183.8 717.7 221.8 739.4 259.5 717.3 259.3 673.6 221.3 652"/>
  <polygon class="st0" points="300.3 652 262.5 674 262.7 717.7 300.7 739.4 338.4 717.3 338.2 673.6 300.3 652"/>
  <polygon class="st0" points="379.2 652 341.4 674 341.7 717.7 379.6 739.4 417.4 717.3 417.1 673.6 379.2 652"/>
  <polygon class="st0" points="458.1 652 420.4 674 420.6 717.7 458.5 739.4 496.3 717.3 496.1 673.6 458.1 652"/>
  <polygon class="st0" points="102.9 722.8 65.2 744.8 65.4 788.5 103.4 810.2 141.1 788.1 140.9 744.4 102.9 722.8"/>
  <polygon class="st0" points="181.9 722.8 144.1 744.8 144.3 788.5 182.3 810.2 220 788.1 219.8 744.4 181.9 722.8"/>
  <polygon class="st0" points="260.8 722.8 223.1 744.8 223.3 788.5 261.2 810.2 299 788.1 298.7 744.4 260.8 722.8"/>
  <polygon class="st0" points="339.7 722.8 302 744.8 302.2 788.5 340.1 810.2 377.9 788.1 377.7 744.4 339.7 722.8"/>
  <polygon class="st0" points="418.6 722.8 380.9 744.8 381.1 788.5 419.1 810.2 456.8 788.1 456.6 744.4 418.6 722.8"/>
  <polygon class="st0" points="497.6 722.8 459.8 744.8 460 788.5 498 810.2 535.7 788.1 535.5 744.4 497.6 722.8"/>
  <polygon class="st0" points="181.9 15.5 144.1 37.5 144.3 81.2 182.3 102.9 220 80.8 219.8 37.1 181.9 15.5"/>
  <polygon class="st0" points="260.8 15.5 223.1 37.5 223.3 81.2 261.2 102.9 299 80.8 298.7 37.1 260.8 15.5"/>
  <polygon class="st0" points="339.7 15.5 302 37.5 302.2 81.2 340.1 102.9 377.9 80.8 377.7 37.1 339.7 15.5"/>
  <polygon class="st0" points="418.6 15.5 380.9 37.5 381.1 81.2 419.1 102.9 456.8 80.8 456.6 37.1 418.6 15.5"/>
  <polygon class="st0" points="141.2 793.5 103.5 815.6 103.7 859.3 141.7 880.9 179.4 858.9 179.2 815.2 141.2 793.5"/>
  <polygon class="st0" points="458.9 793.5 421.2 815.6 421.4 859.3 459.3 880.9 497.1 858.9 496.9 815.2 458.9 793.5"/>
  <polygon class="st0" points="221.3 793.4 183.6 815.5 183.8 859.2 221.8 880.8 259.5 858.8 259.3 815.1 221.3 793.4"/>
  <polygon class="st0" points="300.3 793.4 262.5 815.5 262.7 859.2 300.7 880.8 338.4 858.8 338.2 815.1 300.3 793.4"/>
  <polygon class="st0" points="379.2 793.4 341.4 815.5 341.7 859.2 379.6 880.8 417.4 858.8 417.1 815.1 379.2 793.4"/>
  <polygon class="st0" points="537 369 499.3 391.1 499.5 434.8 537.5 456.4 575.2 434.4 575 390.7 537 369"/>
  <polygon class="st0" points="63.5 369 25.7 391.1 26 434.8 63.9 456.4 101.6 434.4 101.4 390.7 63.5 369"/>
  <polygon class="st0" points="224.9 320.3 260.3 298.4 300.5 321.4 339.5 298.4 374.5 318.1 374.5 366.4 414.4 388.8 414.4 433.6 452.4 459.7 454 503.7 416.2 527.2 414.9 573.6 376 598.8 375.7 646.1 340 669.7 300.5 643.6 261.2 667.8 224.9 648.3 224.9 600.8 186 577.8 186 531 146.6 506.9 146.6 461.1 186 437 186.5 391.1 227.1 366.3 224.9 320.3"/>
  <text class="st1" transform="translate(506 924.3) scale(1 1)"><tspan x="0" y="0">52</tspan></text>
</svg>