<?xml version="1.0" encoding="UTF-8"?>
<svg id="Layer_1" xmlns="http://www.w3.org/2000/svg" version="1.1" viewBox="0 0 595.3 936">
  <!-- Generator: Adobe Illustrator 29.0.1, SVG Export Plug-In . SVG Version: 2.1.0 Build 192)  -->
  <defs>
    <style>
      .st0 {
        fill: #00c1f3;
        stroke: #231f20;
        stroke-miterlimit: 10;
      }

      .st1 {
        fill: #231f20;
        font-family: MyriadPro-Regular, 'Myriad Pro';
        font-size: 20.7px;
      }
    </style>
  </defs>
  <polygon class="st0" points="105.5 150.6 69.4 171.6 69.6 213.4 105.9 234 141.9 213 141.7 171.3 105.5 150.6"/>
  <polygon class="st0" points="180.8 150.6 144.8 171.6 145 213.4 181.3 234 217.3 213 217.1 171.3 180.8 150.6"/>
  <polygon class="st0" points="256.2 150.6 220.2 171.6 220.4 213.4 256.6 234 292.7 213 292.5 171.3 256.2 150.6"/>
  <polygon class="st0" points="331.6 150.6 295.6 171.6 295.8 213.4 332 234 368.1 213 367.9 171.3 331.6 150.6"/>
  <polygon class="st0" points="407 150.6 370.9 171.6 371.2 213.4 407.4 234 443.4 213 443.2 171.3 407 150.6"/>
  <polygon class="st0" points="482.4 150.6 446.3 171.6 446.5 213.4 482.8 234 518.8 213 518.6 171.3 482.4 150.6"/>
  <polygon class="st0" points="143.2 218 107.1 239.1 107.3 280.8 143.6 301.5 179.6 280.5 179.4 238.7 143.2 218"/>
  <polygon class="st0" points="218.5 218 182.5 239.1 182.7 280.8 219 301.5 255 280.5 254.8 238.7 218.5 218"/>
  <polygon class="st0" points="293.9 218 257.9 239.1 258.1 280.8 294.3 301.5 330.4 280.5 330.2 238.7 293.9 218"/>
  <polygon class="st0" points="369.3 218 333.3 239.1 333.5 280.8 369.7 301.5 405.8 280.5 405.5 238.7 369.3 218"/>
  <polygon class="st0" points="444.7 218 408.6 239.1 408.8 280.8 445.1 301.5 481.1 280.5 480.9 238.7 444.7 218"/>
  <polygon class="st0" points="143.2 82.9 107.1 104 107.3 145.7 143.6 166.4 179.6 145.4 179.4 103.6 143.2 82.9"/>
  <polygon class="st0" points="218.5 82.9 182.5 104 182.7 145.7 219 166.4 255 145.4 254.8 103.6 218.5 82.9"/>
  <polygon class="st0" points="293.9 82.9 257.9 104 258.1 145.7 294.3 166.4 330.4 145.4 330.2 103.6 293.9 82.9"/>
  <polygon class="st0" points="369.3 82.9 333.3 104 333.5 145.7 369.7 166.4 405.8 145.4 405.5 103.6 369.3 82.9"/>
  <polygon class="st0" points="444.7 82.9 408.6 104 408.8 145.7 445.1 166.4 481.1 145.4 480.9 103.6 444.7 82.9"/>
  <polygon class="st0" points="105.5 285.7 69.4 306.7 69.6 348.5 105.9 369.1 141.9 348.1 141.7 306.4 105.5 285.7"/>
  <polygon class="st0" points="180.8 285.7 144.8 306.7 145 348.5 181.3 369.1 217.3 348.1 217.1 306.4 180.8 285.7"/>
  <polygon class="st0" points="407 285.7 370.9 306.7 371.2 348.5 407.4 369.1 443.4 348.1 443.2 306.4 407 285.7"/>
  <polygon class="st0" points="482.4 285.7 446.3 306.7 446.5 348.5 482.8 369.1 518.8 348.1 518.6 306.4 482.4 285.7"/>
  <polygon class="st0" points="143.2 353.2 107.1 374.2 107.3 415.9 143.6 436.6 179.6 415.6 179.4 373.8 143.2 353.2"/>
  <polygon class="st0" points="444.7 353.2 408.6 374.2 408.8 415.9 445.1 436.6 481.1 415.6 480.9 373.8 444.7 353.2"/>
  <polygon class="st0" points="105.5 420.8 69.4 441.8 69.6 483.6 105.9 504.3 141.9 483.2 141.7 441.5 105.5 420.8"/>
  <polygon class="st0" points="482.4 420.8 446.3 441.8 446.5 483.6 482.8 504.3 518.8 483.2 518.6 441.5 482.4 420.8"/>
  <polygon class="st0" points="143.2 488.3 107.1 509.3 107.3 551 143.6 571.7 179.6 550.7 179.4 508.9 143.2 488.3"/>
  <polygon class="st0" points="444.7 488.3 408.6 509.3 408.8 551 445.1 571.7 481.1 550.7 480.9 508.9 444.7 488.3"/>
  <polygon class="st0" points="105.5 555.9 69.4 576.9 69.6 618.7 105.9 639.4 141.9 618.3 141.7 576.6 105.5 555.9"/>
  <polygon class="st0" points="180.8 555.9 144.8 576.9 145 618.7 181.3 639.4 217.3 618.3 217.1 576.6 180.8 555.9"/>
  <polygon class="st0" points="407 555.9 370.9 576.9 371.2 618.7 407.4 639.4 443.4 618.3 443.2 576.6 407 555.9"/>
  <polygon class="st0" points="482.4 555.9 446.3 576.9 446.5 618.7 482.8 639.4 518.8 618.3 518.6 576.6 482.4 555.9"/>
  <polygon class="st0" points="143.2 623.4 107.1 644.4 107.3 686.1 143.6 706.8 179.6 685.8 179.4 644 143.2 623.4"/>
  <polygon class="st0" points="218.5 623.4 182.5 644.4 182.7 686.1 219 706.8 255 685.8 254.8 644 218.5 623.4"/>
  <polygon class="st0" points="293.9 623.4 257.9 644.4 258.1 686.1 294.3 706.8 330.4 685.8 330.2 644 293.9 623.4"/>
  <polygon class="st0" points="369.3 623.4 333.3 644.4 333.5 686.1 369.7 706.8 405.8 685.8 405.5 644 369.3 623.4"/>
  <polygon class="st0" points="444.7 623.4 408.6 644.4 408.8 686.1 445.1 706.8 481.1 685.8 480.9 644 444.7 623.4"/>
  <polygon class="st0" points="105.5 691 69.4 712 69.6 753.8 105.9 774.5 141.9 753.4 141.7 711.7 105.5 691"/>
  <polygon class="st0" points="180.8 691 144.8 712 145 753.8 181.3 774.5 217.3 753.4 217.1 711.7 180.8 691"/>
  <polygon class="st0" points="256.2 691 220.2 712 220.4 753.8 256.6 774.5 292.7 753.4 292.5 711.7 256.2 691"/>
  <polygon class="st0" points="331.6 691 295.6 712 295.8 753.8 332 774.5 368.1 753.4 367.9 711.7 331.6 691"/>
  <polygon class="st0" points="407 691 370.9 712 371.2 753.8 407.4 774.5 443.4 753.4 443.2 711.7 407 691"/>
  <polygon class="st0" points="482.4 691 446.3 712 446.5 753.8 482.8 774.5 518.8 753.4 518.6 711.7 482.4 691"/>
  <polygon class="st0" points="105.5 15.5 69.4 36.5 69.6 78.3 105.9 98.9 141.9 77.9 141.7 36.2 105.5 15.5"/>
  <polygon class="st0" points="180.8 15.5 144.8 36.5 145 78.3 181.3 98.9 217.3 77.9 217.1 36.2 180.8 15.5"/>
  <polygon class="st0" points="256.2 15.5 220.2 36.5 220.4 78.3 256.6 98.9 292.7 77.9 292.5 36.2 256.2 15.5"/>
  <polygon class="st0" points="331.6 15.5 295.6 36.5 295.8 78.3 332 98.9 368.1 77.9 367.9 36.2 331.6 15.5"/>
  <polygon class="st0" points="407 15.5 370.9 36.5 371.2 78.3 407.4 98.9 443.4 77.9 443.2 36.2 407 15.5"/>
  <polygon class="st0" points="482.4 15.5 446.3 36.5 446.5 78.3 482.8 98.9 518.8 77.9 518.6 36.2 482.4 15.5"/>
  <polygon class="st0" points="180.8 825.2 144.8 846.2 145 887.9 181.3 908.6 217.3 887.6 217.1 845.8 180.8 825.2"/>
  <polygon class="st0" points="256.2 825.2 220.2 846.2 220.4 887.9 256.6 908.6 292.7 887.6 292.5 845.8 256.2 825.2"/>
  <polygon class="st0" points="331.6 825.2 295.6 846.2 295.8 887.9 332 908.6 368.1 887.6 367.9 845.8 331.6 825.2"/>
  <polygon class="st0" points="407 825.2 370.9 846.2 371.2 887.9 407.4 908.6 443.4 887.6 443.2 845.8 407 825.2"/>
  <polygon class="st0" points="143.2 758.5 107.1 779.5 107.3 821.2 143.6 841.9 179.6 820.9 179.4 779.1 143.2 758.5"/>
  <polygon class="st0" points="218.5 758.5 182.5 779.5 182.7 821.2 219 841.9 255 820.9 254.8 779.1 218.5 758.5"/>
  <polygon class="st0" points="293.9 758.5 257.9 779.5 258.1 821.2 294.3 841.9 330.4 820.9 330.2 779.1 293.9 758.5"/>
  <polygon class="st0" points="369.3 758.5 333.3 779.5 333.5 821.2 369.7 841.9 405.8 820.9 405.5 779.1 369.3 758.5"/>
  <polygon class="st0" points="444.7 758.5 408.6 779.5 408.8 821.2 445.1 841.9 481.1 820.9 480.9 779.1 444.7 758.5"/>
  <polygon class="st0" points="520.1 218 484 239.1 484.2 280.8 520.5 301.5 556.5 280.5 556.3 238.7 520.1 218"/>
  <polygon class="st0" points="520.1 353.2 484 374.2 484.2 415.9 520.5 436.6 556.5 415.6 556.3 373.8 520.1 353.2"/>
  <polygon class="st0" points="520.1 488.3 484 509.3 484.2 551 520.5 571.7 556.5 550.7 556.3 508.9 520.1 488.3"/>
  <polygon class="st0" points="67.8 218 31.7 239.1 31.9 280.8 68.2 301.5 104.2 280.5 104 238.7 67.8 218"/>
  <polygon class="st0" points="67.8 353.2 31.7 374.2 31.9 415.9 68.2 436.6 104.2 415.6 104 373.8 67.8 353.2"/>
  <polygon class="st0" points="67.8 488.3 31.7 509.3 31.9 551 68.2 571.7 104.2 550.7 104 508.9 67.8 488.3"/>
  <polygon class="st0" points="222 306.6 255.7 285.7 294.1 307.6 331.4 285.7 364.8 304.5 364.8 350.6 402.9 372.1 402.9 414.8 439.2 439.7 440.8 481.7 404.7 504.3 403.5 548.5 366.3 572.6 365.9 617.7 331.9 640.3 294.1 615.4 256.6 638.5 222 619.8 222 574.5 184.8 552.5 184.8 507.8 147.2 484.8 147.2 441.1 184.8 418.1 185.3 374.2 224 350.5 222 306.6"/>
  <text class="st1" transform="translate(506 924.3) scale(1 1)"><tspan x="0" y="0">62</tspan></text>
</svg>