<?xml version="1.0" encoding="UTF-8"?>
<svg id="Layer_1" xmlns="http://www.w3.org/2000/svg" version="1.1" viewBox="0 0 595.3 936">
  <!-- Generator: Adobe Illustrator 29.0.1, SVG Export Plug-In . SVG Version: 2.1.0 Build 192)  -->
  <defs>
    <style>
      .st0 {
        fill: #00c1f3;
        stroke: #231f20;
        stroke-miterlimit: 10;
      }

      .st1 {
        fill: #231f20;
        font-family: MyriadPro-Regular, 'Myriad Pro';
        font-size: 20.7px;
      }
    </style>
  </defs>
  <polygon class="st0" points="113.8 139.1 79 159.4 79.2 199.7 114.2 219.7 149 199.4 148.8 159.1 113.8 139.1"/>
  <polygon class="st0" points="186.6 139.1 151.8 159.4 152 199.7 187 219.7 221.9 199.4 221.7 159.1 186.6 139.1"/>
  <polygon class="st0" points="259.5 139.1 224.7 159.4 224.9 199.7 259.9 219.7 294.7 199.4 294.5 159.1 259.5 139.1"/>
  <polygon class="st0" points="332.3 139.1 297.5 159.4 297.7 199.7 332.7 219.7 367.6 199.4 367.4 159.1 332.3 139.1"/>
  <polygon class="st0" points="405.2 139.1 370.3 159.4 370.5 199.7 405.6 219.7 440.4 199.4 440.2 159.1 405.2 139.1"/>
  <polygon class="st0" points="478 139.1 443.2 159.4 443.4 199.7 478.4 219.7 513.2 199.4 513 159.1 478 139.1"/>
  <polygon class="st0" points="150.2 204.3 115.4 224.6 115.6 264.9 150.6 284.9 185.5 264.6 185.3 224.3 150.2 204.3"/>
  <polygon class="st0" points="223.1 204.3 188.2 224.6 188.4 264.9 223.5 284.9 258.3 264.6 258.1 224.3 223.1 204.3"/>
  <polygon class="st0" points="295.9 204.3 261.1 224.6 261.3 264.9 296.3 284.9 331.1 264.6 330.9 224.3 295.9 204.3"/>
  <polygon class="st0" points="368.7 204.3 333.9 224.6 334.1 264.9 369.1 284.9 404 264.6 403.8 224.3 368.7 204.3"/>
  <polygon class="st0" points="441.6 204.3 406.8 224.6 407 264.9 442 284.9 476.8 264.6 476.6 224.3 441.6 204.3"/>
  <polygon class="st0" points="150.2 73.7 115.4 94.1 115.6 134.4 150.6 154.4 185.5 134 185.3 93.7 150.2 73.7"/>
  <polygon class="st0" points="223.1 73.7 188.2 94.1 188.4 134.4 223.5 154.4 258.3 134 258.1 93.7 223.1 73.7"/>
  <polygon class="st0" points="295.9 73.7 261.1 94.1 261.3 134.4 296.3 154.4 331.1 134 330.9 93.7 295.9 73.7"/>
  <polygon class="st0" points="368.7 73.7 333.9 94.1 334.1 134.4 369.1 154.4 404 134 403.8 93.7 368.7 73.7"/>
  <polygon class="st0" points="441.6 73.7 406.8 94.1 407 134.4 442 154.4 476.8 134 476.6 93.7 441.6 73.7"/>
  <polygon class="st0" points="113.8 269.6 79 289.9 79.2 330.3 114.2 350.3 149 329.9 148.8 289.6 113.8 269.6"/>
  <polygon class="st0" points="186.6 269.6 151.8 289.9 152 330.3 187 350.3 221.9 329.9 221.7 289.6 186.6 269.6"/>
  <polygon class="st0" points="405.2 269.6 370.3 289.9 370.5 330.3 405.6 350.3 440.4 329.9 440.2 289.6 405.2 269.6"/>
  <polygon class="st0" points="478 269.6 443.2 289.9 443.4 330.3 478.4 350.3 513.2 329.9 513 289.6 478 269.6"/>
  <polygon class="st0" points="150.2 334.8 115.4 355.2 115.6 395.5 150.6 415.5 185.5 395.1 185.3 354.8 150.2 334.8"/>
  <polygon class="st0" points="441.6 334.8 406.8 355.2 407 395.5 442 415.5 476.8 395.1 476.6 354.8 441.6 334.8"/>
  <polygon class="st0" points="113.8 400.2 79 420.5 79.2 460.8 114.2 480.8 149 460.5 148.8 420.2 113.8 400.2"/>
  <polygon class="st0" points="478 400.2 443.2 420.5 443.4 460.8 478.4 480.8 513.2 460.5 513 420.2 478 400.2"/>
  <polygon class="st0" points="150.2 465.4 115.4 485.7 115.6 526 150.6 546 185.5 525.7 185.3 485.4 150.2 465.4"/>
  <polygon class="st0" points="441.6 465.4 406.8 485.7 407 526 442 546 476.8 525.7 476.6 485.4 441.6 465.4"/>
  <polygon class="st0" points="113.8 530.7 79 551 79.2 591.4 114.2 611.4 149 591 148.8 550.7 113.8 530.7"/>
  <polygon class="st0" points="186.6 530.7 151.8 551 152 591.4 187 611.4 221.9 591 221.7 550.7 186.6 530.7"/>
  <polygon class="st0" points="405.2 530.7 370.3 551 370.5 591.4 405.6 611.4 440.4 591 440.2 550.7 405.2 530.7"/>
  <polygon class="st0" points="478 530.7 443.2 551 443.4 591.4 478.4 611.4 513.2 591 513 550.7 478 530.7"/>
  <polygon class="st0" points="150.2 595.9 115.4 616.2 115.6 656.6 150.6 676.6 185.5 656.2 185.3 615.9 150.2 595.9"/>
  <polygon class="st0" points="223.1 595.9 188.2 616.2 188.4 656.6 223.5 676.6 258.3 656.2 258.1 615.9 223.1 595.9"/>
  <polygon class="st0" points="295.9 595.9 261.1 616.2 261.3 656.6 296.3 676.6 331.1 656.2 330.9 615.9 295.9 595.9"/>
  <polygon class="st0" points="368.7 595.9 333.9 616.2 334.1 656.6 369.1 676.6 404 656.2 403.8 615.9 368.7 595.9"/>
  <polygon class="st0" points="441.6 595.9 406.8 616.2 407 656.6 442 676.6 476.8 656.2 476.6 615.9 441.6 595.9"/>
  <polygon class="st0" points="113.8 661.3 79 681.6 79.2 721.9 114.2 741.9 149 721.6 148.8 681.2 113.8 661.3"/>
  <polygon class="st0" points="186.6 661.3 151.8 681.6 152 721.9 187 741.9 221.9 721.6 221.7 681.2 186.6 661.3"/>
  <polygon class="st0" points="259.5 661.3 224.7 681.6 224.9 721.9 259.9 741.9 294.7 721.6 294.5 681.2 259.5 661.3"/>
  <polygon class="st0" points="332.3 661.3 297.5 681.6 297.7 721.9 332.7 741.9 367.6 721.6 367.4 681.2 332.3 661.3"/>
  <polygon class="st0" points="405.2 661.3 370.3 681.6 370.5 721.9 405.6 741.9 440.4 721.6 440.2 681.2 405.2 661.3"/>
  <polygon class="st0" points="478 661.3 443.2 681.6 443.4 721.9 478.4 741.9 513.2 721.6 513 681.2 478 661.3"/>
  <polygon class="st0" points="550.8 139.1 516 159.4 516.2 199.7 551.2 219.7 586.1 199.4 585.9 159.1 550.8 139.1"/>
  <polygon class="st0" points="550.8 269.6 516 289.9 516.2 330.3 551.2 350.3 586.1 329.9 585.9 289.6 550.8 269.6"/>
  <polygon class="st0" points="550.8 400.2 516 420.5 516.2 460.8 551.2 480.8 586.1 460.5 585.9 420.2 550.8 400.2"/>
  <polygon class="st0" points="550.8 530.7 516 551 516.2 591.4 551.2 611.4 586.1 591 585.9 550.7 550.8 530.7"/>
  <polygon class="st0" points="550.8 661.3 516 681.6 516.2 721.9 551.2 741.9 586.1 721.6 585.9 681.2 550.8 661.3"/>
  <polygon class="st0" points="41 139.1 6.1 159.4 6.3 199.7 41.4 219.7 76.2 199.4 76 159.1 41 139.1"/>
  <polygon class="st0" points="113.8 8.5 79 28.9 79.2 69.2 114.2 89.2 149 68.8 148.8 28.5 113.8 8.5"/>
  <polygon class="st0" points="186.6 8.5 151.8 28.9 152 69.2 187 89.2 221.9 68.8 221.7 28.5 186.6 8.5"/>
  <polygon class="st0" points="259.5 8.5 224.7 28.9 224.9 69.2 259.9 89.2 294.7 68.8 294.5 28.5 259.5 8.5"/>
  <polygon class="st0" points="332.3 8.5 297.5 28.9 297.7 69.2 332.7 89.2 367.6 68.8 367.4 28.5 332.3 8.5"/>
  <polygon class="st0" points="405.2 8.5 370.3 28.9 370.5 69.2 405.6 89.2 440.4 68.8 440.2 28.5 405.2 8.5"/>
  <polygon class="st0" points="478 8.5 443.2 28.9 443.4 69.2 478.4 89.2 513.2 68.8 513 28.5 478 8.5"/>
  <polygon class="st0" points="550.8 8.5 516 28.9 516.2 69.2 551.2 89.2 586.1 68.8 585.9 28.5 550.8 8.5"/>
  <polygon class="st0" points="41 8.5 6.1 28.9 6.3 69.2 41.4 89.2 76.2 68.8 76 28.5 41 8.5"/>
  <polygon class="st0" points="41 269.6 6.1 289.9 6.3 330.3 41.4 350.3 76.2 329.9 76 289.6 41 269.6"/>
  <polygon class="st0" points="41 400.2 6.1 420.5 6.3 460.8 41.4 480.8 76.2 460.5 76 420.2 41 400.2"/>
  <polygon class="st0" points="41 530.7 6.1 551 6.3 591.4 41.4 611.4 76.2 591 76 550.7 41 530.7"/>
  <polygon class="st0" points="41 661.3 6.1 681.6 6.3 721.9 41.4 741.9 76.2 721.6 76 681.2 41 661.3"/>
  <polygon class="st0" points="150.2 726.5 115.4 746.8 115.6 787.1 150.6 807.1 185.5 786.8 185.3 746.5 150.2 726.5"/>
  <polygon class="st0" points="223.1 726.5 188.2 746.8 188.4 787.1 223.5 807.1 258.3 786.8 258.1 746.5 223.1 726.5"/>
  <polygon class="st0" points="295.9 726.5 261.1 746.8 261.3 787.1 296.3 807.1 331.1 786.8 330.9 746.5 295.9 726.5"/>
  <polygon class="st0" points="368.7 726.5 333.9 746.8 334.1 787.1 369.1 807.1 404 786.8 403.8 746.5 368.7 726.5"/>
  <polygon class="st0" points="441.6 726.5 406.8 746.8 407 787.1 442 807.1 476.8 786.8 476.6 746.5 441.6 726.5"/>
  <polygon class="st0" points="514.4 204.3 479.6 224.6 479.8 264.9 514.8 284.9 549.7 264.6 549.5 224.3 514.4 204.3"/>
  <polygon class="st0" points="514.4 73.7 479.6 94.1 479.8 134.4 514.8 154.4 549.7 134 549.5 93.7 514.4 73.7"/>
  <polygon class="st0" points="514.4 334.8 479.6 355.2 479.8 395.5 514.8 415.5 549.7 395.1 549.5 354.8 514.4 334.8"/>
  <polygon class="st0" points="514.4 465.4 479.6 485.7 479.8 526 514.8 546 549.7 525.7 549.5 485.4 514.4 465.4"/>
  <polygon class="st0" points="514.4 595.9 479.6 616.2 479.8 656.6 514.8 676.6 549.7 656.2 549.5 615.9 514.4 595.9"/>
  <polygon class="st0" points="514.4 726.5 479.6 746.8 479.8 787.1 514.8 807.1 549.7 786.8 549.5 746.5 514.4 726.5"/>
  <polygon class="st0" points="77.4 204.3 42.6 224.6 42.8 264.9 77.8 284.9 112.6 264.6 112.4 224.3 77.4 204.3"/>
  <polygon class="st0" points="77.4 73.7 42.6 94.1 42.8 134.4 77.8 154.4 112.6 134 112.4 93.7 77.4 73.7"/>
  <polygon class="st0" points="188 795.3 153.2 815.7 153.4 856 188.4 876 223.3 855.7 223.1 815.3 188 795.3"/>
  <polygon class="st0" points="260.9 795.3 226.1 815.7 226.3 856 261.3 876 296.1 855.7 295.9 815.3 260.9 795.3"/>
  <polygon class="st0" points="333.7 795.3 298.9 815.7 299.1 856 334.1 876 368.9 855.7 368.7 815.3 333.7 795.3"/>
  <polygon class="st0" points="406.6 795.3 371.7 815.7 371.9 856 407 876 441.8 855.7 441.6 815.3 406.6 795.3"/>
  <polygon class="st0" points="77.4 334.8 42.6 355.2 42.8 395.5 77.8 415.5 112.6 395.1 112.4 354.8 77.4 334.8"/>
  <polygon class="st0" points="77.4 465.4 42.6 485.7 42.8 526 77.8 546 112.6 525.7 112.4 485.4 77.4 465.4"/>
  <polygon class="st0" points="77.4 595.9 42.6 616.2 42.8 656.6 77.8 676.6 112.6 656.2 112.4 615.9 77.4 595.9"/>
  <polygon class="st0" points="77.4 726.5 42.6 746.8 42.8 787.1 77.8 807.1 112.6 786.8 112.4 746.5 77.4 726.5"/>
  <polygon class="st0" points="226.4 289.9 259 269.6 296.1 290.8 332.2 269.6 364.4 287.8 364.4 332.4 401.2 353.1 401.2 394.4 436.3 418.5 437.8 459 402.9 480.8 401.8 523.6 365.8 546.9 365.5 590.5 332.6 612.3 296.1 588.2 259.9 610.5 226.4 592.5 226.4 548.7 190.5 527.5 190.5 484.3 154.1 462.1 154.1 419.8 190.5 397.5 190.9 355.1 228.4 332.3 226.4 289.9"/>
  <text class="st1" transform="translate(506 924.3) scale(1 1)"><tspan x="0" y="0">80</tspan></text>
</svg>