<?xml version="1.0" encoding="UTF-8"?>
<svg id="Layer_1" xmlns="http://www.w3.org/2000/svg" version="1.1" viewBox="0 0 595.3 936">
  <!-- Generator: Adobe Illustrator 29.0.1, SVG Export Plug-In . SVG Version: 2.1.0 Build 192)  -->
  <defs>
    <style>
      .st0 {
        fill: #00c1f3;
        stroke: #231f20;
        stroke-miterlimit: 10;
      }

      .st1 {
        fill: #231f20;
        font-family: MyriadPro-Regular, 'Myriad Pro';
        font-size: 20.7px;
      }
    </style>
  </defs>
  <polygon class="st0" points="113.8 199.1 79 219.4 79.2 259.7 114.2 279.7 149 259.4 148.8 219.1 113.8 199.1"/>
  <polygon class="st0" points="186.6 199.1 151.8 219.4 152 259.7 187 279.7 221.9 259.4 221.7 219.1 186.6 199.1"/>
  <polygon class="st0" points="259.5 199.1 224.7 219.4 224.9 259.7 259.9 279.7 294.7 259.4 294.5 219.1 259.5 199.1"/>
  <polygon class="st0" points="332.3 199.1 297.5 219.4 297.7 259.7 332.7 279.7 367.6 259.4 367.4 219.1 332.3 199.1"/>
  <polygon class="st0" points="405.2 199.1 370.3 219.4 370.5 259.7 405.6 279.7 440.4 259.4 440.2 219.1 405.2 199.1"/>
  <polygon class="st0" points="478 199.1 443.2 219.4 443.4 259.7 478.4 279.7 513.2 259.4 513 219.1 478 199.1"/>
  <polygon class="st0" points="150.2 264.3 115.4 284.6 115.6 324.9 150.6 344.9 185.5 324.6 185.3 284.3 150.2 264.3"/>
  <polygon class="st0" points="223.1 264.3 188.2 284.6 188.4 324.9 223.5 344.9 258.3 324.6 258.1 284.3 223.1 264.3"/>
  <polygon class="st0" points="295.9 264.3 261.1 284.6 261.3 324.9 296.3 344.9 331.1 324.6 330.9 284.3 295.9 264.3"/>
  <polygon class="st0" points="368.7 264.3 333.9 284.6 334.1 324.9 369.1 344.9 404 324.6 403.8 284.3 368.7 264.3"/>
  <polygon class="st0" points="441.6 264.3 406.8 284.6 407 324.9 442 344.9 476.8 324.6 476.6 284.3 441.6 264.3"/>
  <polygon class="st0" points="150.2 133.7 115.4 154.1 115.6 194.4 150.6 214.4 185.5 194 185.3 153.7 150.2 133.7"/>
  <polygon class="st0" points="223.1 133.7 188.2 154.1 188.4 194.4 223.5 214.4 258.3 194 258.1 153.7 223.1 133.7"/>
  <polygon class="st0" points="295.9 133.7 261.1 154.1 261.3 194.4 296.3 214.4 331.1 194 330.9 153.7 295.9 133.7"/>
  <polygon class="st0" points="368.7 133.7 333.9 154.1 334.1 194.4 369.1 214.4 404 194 403.8 153.7 368.7 133.7"/>
  <polygon class="st0" points="441.6 133.7 406.8 154.1 407 194.4 442 214.4 476.8 194 476.6 153.7 441.6 133.7"/>
  <polygon class="st0" points="113.8 329.6 79 349.9 79.2 390.3 114.2 410.3 149 389.9 148.8 349.6 113.8 329.6"/>
  <polygon class="st0" points="186.6 329.6 151.8 349.9 152 390.3 187 410.3 221.9 389.9 221.7 349.6 186.6 329.6"/>
  <polygon class="st0" points="405.2 329.6 370.3 349.9 370.5 390.3 405.6 410.3 440.4 389.9 440.2 349.6 405.2 329.6"/>
  <polygon class="st0" points="478 329.6 443.2 349.9 443.4 390.3 478.4 410.3 513.2 389.9 513 349.6 478 329.6"/>
  <polygon class="st0" points="150.2 394.8 115.4 415.2 115.6 455.5 150.6 475.5 185.5 455.1 185.3 414.8 150.2 394.8"/>
  <polygon class="st0" points="441.6 394.8 406.8 415.2 407 455.5 442 475.5 476.8 455.1 476.6 414.8 441.6 394.8"/>
  <polygon class="st0" points="113.8 460.2 79 480.5 79.2 520.8 114.2 540.8 149 520.5 148.8 480.2 113.8 460.2"/>
  <polygon class="st0" points="478 460.2 443.2 480.5 443.4 520.8 478.4 540.8 513.2 520.5 513 480.2 478 460.2"/>
  <polygon class="st0" points="150.2 525.4 115.4 545.7 115.6 586 150.6 606 185.5 585.7 185.3 545.4 150.2 525.4"/>
  <polygon class="st0" points="441.6 525.4 406.8 545.7 407 586 442 606 476.8 585.7 476.6 545.4 441.6 525.4"/>
  <polygon class="st0" points="113.8 590.7 79 611 79.2 651.4 114.2 671.4 149 651 148.8 610.7 113.8 590.7"/>
  <polygon class="st0" points="186.6 590.7 151.8 611 152 651.4 187 671.4 221.9 651 221.7 610.7 186.6 590.7"/>
  <polygon class="st0" points="405.2 590.7 370.3 611 370.5 651.4 405.6 671.4 440.4 651 440.2 610.7 405.2 590.7"/>
  <polygon class="st0" points="478 590.7 443.2 611 443.4 651.4 478.4 671.4 513.2 651 513 610.7 478 590.7"/>
  <polygon class="st0" points="150.2 655.9 115.4 676.2 115.6 716.6 150.6 736.6 185.5 716.2 185.3 675.9 150.2 655.9"/>
  <polygon class="st0" points="223.1 655.9 188.2 676.2 188.4 716.6 223.5 736.6 258.3 716.2 258.1 675.9 223.1 655.9"/>
  <polygon class="st0" points="295.9 655.9 261.1 676.2 261.3 716.6 296.3 736.6 331.1 716.2 330.9 675.9 295.9 655.9"/>
  <polygon class="st0" points="368.7 655.9 333.9 676.2 334.1 716.6 369.1 736.6 404 716.2 403.8 675.9 368.7 655.9"/>
  <polygon class="st0" points="441.6 655.9 406.8 676.2 407 716.6 442 736.6 476.8 716.2 476.6 675.9 441.6 655.9"/>
  <polygon class="st0" points="113.8 721.3 79 741.6 79.2 781.9 114.2 801.9 149 781.6 148.8 741.2 113.8 721.3"/>
  <polygon class="st0" points="186.6 721.3 151.8 741.6 152 781.9 187 801.9 221.9 781.6 221.7 741.2 186.6 721.3"/>
  <polygon class="st0" points="259.5 721.3 224.7 741.6 224.9 781.9 259.9 801.9 294.7 781.6 294.5 741.2 259.5 721.3"/>
  <polygon class="st0" points="332.3 721.3 297.5 741.6 297.7 781.9 332.7 801.9 367.6 781.6 367.4 741.2 332.3 721.3"/>
  <polygon class="st0" points="405.2 721.3 370.3 741.6 370.5 781.9 405.6 801.9 440.4 781.6 440.2 741.2 405.2 721.3"/>
  <polygon class="st0" points="478 721.3 443.2 741.6 443.4 781.9 478.4 801.9 513.2 781.6 513 741.2 478 721.3"/>
  <polygon class="st0" points="550.8 199.1 516 219.4 516.2 259.7 551.2 279.7 586.1 259.4 585.9 219.1 550.8 199.1"/>
  <polygon class="st0" points="550.8 329.6 516 349.9 516.2 390.3 551.2 410.3 586.1 389.9 585.9 349.6 550.8 329.6"/>
  <polygon class="st0" points="550.8 460.2 516 480.5 516.2 520.8 551.2 540.8 586.1 520.5 585.9 480.2 550.8 460.2"/>
  <polygon class="st0" points="550.8 590.7 516 611 516.2 651.4 551.2 671.4 586.1 651 585.9 610.7 550.8 590.7"/>
  <polygon class="st0" points="550.8 721.3 516 741.6 516.2 781.9 551.2 801.9 586.1 781.6 585.9 741.2 550.8 721.3"/>
  <polygon class="st0" points="41 199.1 6.1 219.4 6.3 259.7 41.4 279.7 76.2 259.4 76 219.1 41 199.1"/>
  <polygon class="st0" points="113.8 68.5 79 88.9 79.2 129.2 114.2 149.2 149 128.8 148.8 88.5 113.8 68.5"/>
  <polygon class="st0" points="186.6 68.5 151.8 88.9 152 129.2 187 149.2 221.9 128.8 221.7 88.5 186.6 68.5"/>
  <polygon class="st0" points="259.5 68.5 224.7 88.9 224.9 129.2 259.9 149.2 294.7 128.8 294.5 88.5 259.5 68.5"/>
  <polygon class="st0" points="332.3 68.5 297.5 88.9 297.7 129.2 332.7 149.2 367.6 128.8 367.4 88.5 332.3 68.5"/>
  <polygon class="st0" points="405.2 68.5 370.3 88.9 370.5 129.2 405.6 149.2 440.4 128.8 440.2 88.5 405.2 68.5"/>
  <polygon class="st0" points="478 68.5 443.2 88.9 443.4 129.2 478.4 149.2 513.2 128.8 513 88.5 478 68.5"/>
  <polygon class="st0" points="550.8 68.5 516 88.9 516.2 129.2 551.2 149.2 586.1 128.8 585.9 88.5 550.8 68.5"/>
  <polygon class="st0" points="41 68.5 6.1 88.9 6.3 129.2 41.4 149.2 76.2 128.8 76 88.5 41 68.5"/>
  <polygon class="st0" points="41 329.6 6.1 349.9 6.3 390.3 41.4 410.3 76.2 389.9 76 349.6 41 329.6"/>
  <polygon class="st0" points="41 460.2 6.1 480.5 6.3 520.8 41.4 540.8 76.2 520.5 76 480.2 41 460.2"/>
  <polygon class="st0" points="41 590.7 6.1 611 6.3 651.4 41.4 671.4 76.2 651 76 610.7 41 590.7"/>
  <polygon class="st0" points="41 721.3 6.1 741.6 6.3 781.9 41.4 801.9 76.2 781.6 76 741.2 41 721.3"/>
  <polygon class="st0" points="150.2 786.5 115.4 806.8 115.6 847.1 150.6 867.1 185.5 846.8 185.3 806.5 150.2 786.5"/>
  <polygon class="st0" points="223.1 786.5 188.2 806.8 188.4 847.1 223.5 867.1 258.3 846.8 258.1 806.5 223.1 786.5"/>
  <polygon class="st0" points="295.9 786.5 261.1 806.8 261.3 847.1 296.3 867.1 331.1 846.8 330.9 806.5 295.9 786.5"/>
  <polygon class="st0" points="368.7 786.5 333.9 806.8 334.1 847.1 369.1 867.1 404 846.8 403.8 806.5 368.7 786.5"/>
  <polygon class="st0" points="441.6 786.5 406.8 806.8 407 847.1 442 867.1 476.8 846.8 476.6 806.5 441.6 786.5"/>
  <polygon class="st0" points="514.4 264.3 479.6 284.6 479.8 324.9 514.8 344.9 549.7 324.6 549.5 284.3 514.4 264.3"/>
  <polygon class="st0" points="514.4 133.7 479.6 154.1 479.8 194.4 514.8 214.4 549.7 194 549.5 153.7 514.4 133.7"/>
  <polygon class="st0" points="514.4 394.8 479.6 415.2 479.8 455.5 514.8 475.5 549.7 455.1 549.5 414.8 514.4 394.8"/>
  <polygon class="st0" points="514.4 525.4 479.6 545.7 479.8 586 514.8 606 549.7 585.7 549.5 545.4 514.4 525.4"/>
  <polygon class="st0" points="514.4 655.9 479.6 676.2 479.8 716.6 514.8 736.6 549.7 716.2 549.5 675.9 514.4 655.9"/>
  <polygon class="st0" points="514.4 786.5 479.6 806.8 479.8 847.1 514.8 867.1 549.7 846.8 549.5 806.5 514.4 786.5"/>
  <polygon class="st0" points="77.4 264.3 42.6 284.6 42.8 324.9 77.8 344.9 112.6 324.6 112.4 284.3 77.4 264.3"/>
  <polygon class="st0" points="77.4 133.7 42.6 154.1 42.8 194.4 77.8 214.4 112.6 194 112.4 153.7 77.4 133.7"/>
  <polygon class="st0" points="150.2 3.2 115.4 23.5 115.6 63.8 150.6 83.8 185.5 63.5 185.3 23.2 150.2 3.2"/>
  <polygon class="st0" points="223.1 3.2 188.2 23.5 188.4 63.8 223.5 83.8 258.3 63.5 258.1 23.2 223.1 3.2"/>
  <polygon class="st0" points="295.9 3.2 261.1 23.5 261.3 63.8 296.3 83.8 331.1 63.5 330.9 23.2 295.9 3.2"/>
  <polygon class="st0" points="368.7 3.2 333.9 23.5 334.1 63.8 369.1 83.8 404 63.5 403.8 23.2 368.7 3.2"/>
  <polygon class="st0" points="441.6 3.2 406.8 23.5 407 63.8 442 83.8 476.8 63.5 476.6 23.2 441.6 3.2"/>
  <polygon class="st0" points="514.4 3.2 479.6 23.5 479.8 63.8 514.8 83.8 549.7 63.5 549.5 23.2 514.4 3.2"/>
  <polygon class="st0" points="77.4 3.2 42.6 23.5 42.8 63.8 77.8 83.8 112.6 63.5 112.4 23.2 77.4 3.2"/>
  <polygon class="st0" points="77.4 394.8 42.6 415.2 42.8 455.5 77.8 475.5 112.6 455.1 112.4 414.8 77.4 394.8"/>
  <polygon class="st0" points="77.4 525.4 42.6 545.7 42.8 586 77.8 606 112.6 585.7 112.4 545.4 77.4 525.4"/>
  <polygon class="st0" points="77.4 655.9 42.6 676.2 42.8 716.6 77.8 736.6 112.6 716.2 112.4 675.9 77.4 655.9"/>
  <polygon class="st0" points="77.4 786.5 42.6 806.8 42.8 847.1 77.8 867.1 112.6 846.8 112.4 806.5 77.4 786.5"/>
  <polygon class="st0" points="226.4 349.9 259 329.6 296.1 350.8 332.2 329.6 364.4 347.8 364.4 392.4 401.2 413.1 401.2 454.4 436.3 478.5 437.8 519 402.9 540.8 401.8 583.6 365.8 606.9 365.5 650.5 332.6 672.3 296.1 648.2 259.9 670.5 226.4 652.5 226.4 608.7 190.5 587.5 190.5 544.3 154.1 522.1 154.1 479.8 190.5 457.5 190.9 415.1 228.4 392.3 226.4 349.9"/>
  <text class="st1" transform="translate(505.2 924.3)"><tspan x="0" y="0">83</tspan></text>
</svg>