<?xml version="1.0" encoding="UTF-8"?>
<svg id="Layer_1" xmlns="http://www.w3.org/2000/svg" version="1.1" viewBox="0 0 595.3 936">
  <!-- Generator: Adobe Illustrator 29.0.1, SVG Export Plug-In . SVG Version: 2.1.0 Build 192)  -->
  <defs>
    <style>
      .st0 {
        fill: #00c1f3;
        stroke: #231f20;
        stroke-miterlimit: 10;
      }

      .st1 {
        fill: #231f20;
        font-family: MyriadPro-Regular, 'Myriad Pro';
        font-size: 20.7px;
      }
    </style>
  </defs>
  <polygon class="st0" points="127.7 184.1 95.6 202.9 95.8 240.1 128.1 258.6 160.3 239.8 160.1 202.6 127.7 184.1"/>
  <polygon class="st0" points="195 184.1 162.8 202.9 163 240.1 195.4 258.6 227.5 239.8 227.4 202.6 195 184.1"/>
  <polygon class="st0" points="262.3 184.1 230.1 202.9 230.3 240.1 262.7 258.6 294.8 239.8 294.6 202.6 262.3 184.1"/>
  <polygon class="st0" points="329.6 184.1 297.4 202.9 297.6 240.1 329.9 258.6 362.1 239.8 361.9 202.6 329.6 184.1"/>
  <polygon class="st0" points="396.8 184.1 364.7 202.9 364.9 240.1 397.2 258.6 429.4 239.8 429.2 202.6 396.8 184.1"/>
  <polygon class="st0" points="464.1 184.1 431.9 202.9 432.1 240.1 464.5 258.6 496.6 239.8 496.5 202.6 464.1 184.1"/>
  <polygon class="st0" points="161.4 244.3 129.2 263.1 129.4 300.4 161.7 318.8 193.9 300 193.7 262.8 161.4 244.3"/>
  <polygon class="st0" points="228.6 244.3 196.5 263.1 196.7 300.4 229 318.8 261.2 300 261 262.8 228.6 244.3"/>
  <polygon class="st0" points="295.9 244.3 263.8 263.1 263.9 300.4 296.3 318.8 328.5 300 328.3 262.8 295.9 244.3"/>
  <polygon class="st0" points="363.2 244.3 331 263.1 331.2 300.4 363.6 318.8 395.7 300 395.5 262.8 363.2 244.3"/>
  <polygon class="st0" points="430.5 244.3 398.3 263.1 398.5 300.4 430.8 318.8 463 300 462.8 262.8 430.5 244.3"/>
  <polygon class="st0" points="161.4 123.7 129.2 142.5 129.4 179.8 161.7 198.2 193.9 179.5 193.7 142.2 161.4 123.7"/>
  <polygon class="st0" points="228.6 123.7 196.5 142.5 196.7 179.8 229 198.2 261.2 179.5 261 142.2 228.6 123.7"/>
  <polygon class="st0" points="295.9 123.7 263.8 142.5 263.9 179.8 296.3 198.2 328.5 179.5 328.3 142.2 295.9 123.7"/>
  <polygon class="st0" points="363.2 123.7 331 142.5 331.2 179.8 363.6 198.2 395.7 179.5 395.5 142.2 363.2 123.7"/>
  <polygon class="st0" points="430.5 123.7 398.3 142.5 398.5 179.8 430.8 198.2 463 179.5 462.8 142.2 430.5 123.7"/>
  <polygon class="st0" points="127.7 304.7 95.6 323.5 95.8 360.7 128.1 379.2 160.3 360.4 160.1 323.1 127.7 304.7"/>
  <polygon class="st0" points="195 304.7 162.8 323.5 163 360.7 195.4 379.2 227.5 360.4 227.4 323.1 195 304.7"/>
  <polygon class="st0" points="396.8 304.7 364.7 323.5 364.9 360.7 397.2 379.2 429.4 360.4 429.2 323.1 396.8 304.7"/>
  <polygon class="st0" points="464.1 304.7 431.9 323.5 432.1 360.7 464.5 379.2 496.6 360.4 496.5 323.1 464.1 304.7"/>
  <polygon class="st0" points="161.4 364.9 129.2 383.7 129.4 420.9 161.7 439.4 193.9 420.6 193.7 383.4 161.4 364.9"/>
  <polygon class="st0" points="430.5 364.9 398.3 383.7 398.5 420.9 430.8 439.4 463 420.6 462.8 383.4 430.5 364.9"/>
  <polygon class="st0" points="127.7 425.2 95.6 444 95.8 481.3 128.1 499.7 160.3 481 160.1 443.7 127.7 425.2"/>
  <polygon class="st0" points="464.1 425.2 431.9 444 432.1 481.3 464.5 499.7 496.6 481 496.5 443.7 464.1 425.2"/>
  <polygon class="st0" points="161.4 485.5 129.2 504.3 129.4 541.5 161.7 560 193.9 541.2 193.7 503.9 161.4 485.5"/>
  <polygon class="st0" points="430.5 485.5 398.3 504.3 398.5 541.5 430.8 560 463 541.2 462.8 503.9 430.5 485.5"/>
  <polygon class="st0" points="127.7 545.8 95.6 564.6 95.8 601.9 128.1 620.3 160.3 601.5 160.1 564.3 127.7 545.8"/>
  <polygon class="st0" points="195 545.8 162.8 564.6 163 601.9 195.4 620.3 227.5 601.5 227.4 564.3 195 545.8"/>
  <polygon class="st0" points="396.8 545.8 364.7 564.6 364.9 601.9 397.2 620.3 429.4 601.5 429.2 564.3 396.8 545.8"/>
  <polygon class="st0" points="464.1 545.8 431.9 564.6 432.1 601.9 464.5 620.3 496.6 601.5 496.5 564.3 464.1 545.8"/>
  <polygon class="st0" points="161.4 606 129.2 624.8 129.4 662.1 161.7 680.5 193.9 661.8 193.7 624.5 161.4 606"/>
  <polygon class="st0" points="228.6 606 196.5 624.8 196.7 662.1 229 680.5 261.2 661.8 261 624.5 228.6 606"/>
  <polygon class="st0" points="295.9 606 263.8 624.8 263.9 662.1 296.3 680.5 328.5 661.8 328.3 624.5 295.9 606"/>
  <polygon class="st0" points="363.2 606 331 624.8 331.2 662.1 363.6 680.5 395.7 661.8 395.5 624.5 363.2 606"/>
  <polygon class="st0" points="430.5 606 398.3 624.8 398.5 662.1 430.8 680.5 463 661.8 462.8 624.5 430.5 606"/>
  <polygon class="st0" points="127.7 666.4 95.6 685.2 95.8 722.4 128.1 740.9 160.3 722.1 160.1 684.9 127.7 666.4"/>
  <polygon class="st0" points="195 666.4 162.8 685.2 163 722.4 195.4 740.9 227.5 722.1 227.4 684.9 195 666.4"/>
  <polygon class="st0" points="262.3 666.4 230.1 685.2 230.3 722.4 262.7 740.9 294.8 722.1 294.6 684.9 262.3 666.4"/>
  <polygon class="st0" points="329.6 666.4 297.4 685.2 297.6 722.4 329.9 740.9 362.1 722.1 361.9 684.9 329.6 666.4"/>
  <polygon class="st0" points="396.8 666.4 364.7 685.2 364.9 722.4 397.2 740.9 429.4 722.1 429.2 684.9 396.8 666.4"/>
  <polygon class="st0" points="464.1 666.4 431.9 685.2 432.1 722.4 464.5 740.9 496.6 722.1 496.5 684.9 464.1 666.4"/>
  <polygon class="st0" points="127.7 787 95.6 805.8 95.8 843 128.1 861.5 160.3 842.7 160.1 805.4 127.7 787"/>
  <polygon class="st0" points="195 787 162.8 805.8 163 843 195.4 861.5 227.5 842.7 227.4 805.4 195 787"/>
  <polygon class="st0" points="262.3 787 230.1 805.8 230.3 843 262.7 861.5 294.8 842.7 294.6 805.4 262.3 787"/>
  <polygon class="st0" points="329.6 787 297.4 805.8 297.6 843 329.9 861.5 362.1 842.7 361.9 805.4 329.6 787"/>
  <polygon class="st0" points="396.8 787 364.7 805.8 364.9 843 397.2 861.5 429.4 842.7 429.2 805.4 396.8 787"/>
  <polygon class="st0" points="464.1 787 431.9 805.8 432.1 843 464.5 861.5 496.6 842.7 496.5 805.4 464.1 787"/>
  <polygon class="st0" points="531.4 184.1 499.2 202.9 499.4 240.1 531.8 258.6 563.9 239.8 563.7 202.6 531.4 184.1"/>
  <polygon class="st0" points="531.4 304.7 499.2 323.5 499.4 360.7 531.8 379.2 563.9 360.4 563.7 323.1 531.4 304.7"/>
  <polygon class="st0" points="531.4 425.2 499.2 444 499.4 481.3 531.8 499.7 563.9 481 563.7 443.7 531.4 425.2"/>
  <polygon class="st0" points="531.4 545.8 499.2 564.6 499.4 601.9 531.8 620.3 563.9 601.5 563.7 564.3 531.4 545.8"/>
  <polygon class="st0" points="531.4 666.4 499.2 685.2 499.4 722.4 531.8 740.9 563.9 722.1 563.7 684.9 531.4 666.4"/>
  <polygon class="st0" points="60.5 184.1 28.3 202.9 28.5 240.1 60.8 258.6 93 239.8 92.8 202.6 60.5 184.1"/>
  <polygon class="st0" points="127.7 63.5 95.6 82.3 95.8 119.6 128.1 138 160.3 119.2 160.1 82 127.7 63.5"/>
  <polygon class="st0" points="195 63.5 162.8 82.3 163 119.6 195.4 138 227.5 119.2 227.4 82 195 63.5"/>
  <polygon class="st0" points="262.3 63.5 230.1 82.3 230.3 119.6 262.7 138 294.8 119.2 294.6 82 262.3 63.5"/>
  <polygon class="st0" points="329.6 63.5 297.4 82.3 297.6 119.6 329.9 138 362.1 119.2 361.9 82 329.6 63.5"/>
  <polygon class="st0" points="396.8 63.5 364.7 82.3 364.9 119.6 397.2 138 429.4 119.2 429.2 82 396.8 63.5"/>
  <polygon class="st0" points="464.1 63.5 431.9 82.3 432.1 119.6 464.5 138 496.6 119.2 496.5 82 464.1 63.5"/>
  <polygon class="st0" points="531.4 63.5 499.2 82.3 499.4 119.6 531.8 138 563.9 119.2 563.7 82 531.4 63.5"/>
  <polygon class="st0" points="60.5 63.5 28.3 82.3 28.5 119.6 60.8 138 93 119.2 92.8 82 60.5 63.5"/>
  <polygon class="st0" points="60.5 304.7 28.3 323.5 28.5 360.7 60.8 379.2 93 360.4 92.8 323.1 60.5 304.7"/>
  <polygon class="st0" points="60.5 425.2 28.3 444 28.5 481.3 60.8 499.7 93 481 92.8 443.7 60.5 425.2"/>
  <polygon class="st0" points="60.5 545.8 28.3 564.6 28.5 601.9 60.8 620.3 93 601.5 92.8 564.3 60.5 545.8"/>
  <polygon class="st0" points="60.5 666.4 28.3 685.2 28.5 722.4 60.8 740.9 93 722.1 92.8 684.9 60.5 666.4"/>
  <polygon class="st0" points="161.4 726.6 129.2 745.4 129.4 782.7 161.7 801.1 193.9 782.3 193.7 745.1 161.4 726.6"/>
  <polygon class="st0" points="228.6 726.6 196.5 745.4 196.7 782.7 229 801.1 261.2 782.3 261 745.1 228.6 726.6"/>
  <polygon class="st0" points="295.9 726.6 263.8 745.4 263.9 782.7 296.3 801.1 328.5 782.3 328.3 745.1 295.9 726.6"/>
  <polygon class="st0" points="363.2 726.6 331 745.4 331.2 782.7 363.6 801.1 395.7 782.3 395.5 745.1 363.2 726.6"/>
  <polygon class="st0" points="430.5 726.6 398.3 745.4 398.5 782.7 430.8 801.1 463 782.3 462.8 745.1 430.5 726.6"/>
  <polygon class="st0" points="497.7 244.3 465.6 263.1 465.8 300.4 498.1 318.8 530.3 300 530.1 262.8 497.7 244.3"/>
  <polygon class="st0" points="497.7 123.7 465.6 142.5 465.8 179.8 498.1 198.2 530.3 179.5 530.1 142.2 497.7 123.7"/>
  <polygon class="st0" points="497.7 364.9 465.6 383.7 465.8 420.9 498.1 439.4 530.3 420.6 530.1 383.4 497.7 364.9"/>
  <polygon class="st0" points="497.7 485.5 465.6 504.3 465.8 541.5 498.1 560 530.3 541.2 530.1 503.9 497.7 485.5"/>
  <polygon class="st0" points="497.7 606 465.6 624.8 465.8 662.1 498.1 680.5 530.3 661.8 530.1 624.5 497.7 606"/>
  <polygon class="st0" points="497.7 726.6 465.6 745.4 465.8 782.7 498.1 801.1 530.3 782.3 530.1 745.1 497.7 726.6"/>
  <polygon class="st0" points="94.1 244.3 61.9 263.1 62.1 300.4 94.5 318.8 126.6 300 126.5 262.8 94.1 244.3"/>
  <polygon class="st0" points="94.1 123.7 61.9 142.5 62.1 179.8 94.5 198.2 126.6 179.5 126.5 142.2 94.1 123.7"/>
  <polygon class="st0" points="161.4 3.2 129.2 22 129.4 59.2 161.7 77.7 193.9 58.9 193.7 21.6 161.4 3.2"/>
  <polygon class="st0" points="228.6 3.2 196.5 22 196.7 59.2 229 77.7 261.2 58.9 261 21.6 228.6 3.2"/>
  <polygon class="st0" points="295.9 3.2 263.8 22 263.9 59.2 296.3 77.7 328.5 58.9 328.3 21.6 295.9 3.2"/>
  <polygon class="st0" points="363.2 3.2 331 22 331.2 59.2 363.6 77.7 395.7 58.9 395.5 21.6 363.2 3.2"/>
  <polygon class="st0" points="430.5 3.2 398.3 22 398.5 59.2 430.8 77.7 463 58.9 462.8 21.6 430.5 3.2"/>
  <polygon class="st0" points="497.7 3.2 465.6 22 465.8 59.2 498.1 77.7 530.3 58.9 530.1 21.6 497.7 3.2"/>
  <polygon class="st0" points="94.1 3.2 61.9 22 62.1 59.2 94.5 77.7 126.6 58.9 126.5 21.6 94.1 3.2"/>
  <polygon class="st0" points="94.1 364.9 61.9 383.7 62.1 420.9 94.5 439.4 126.6 420.6 126.5 383.4 94.1 364.9"/>
  <polygon class="st0" points="94.1 485.5 61.9 504.3 62.1 541.5 94.5 560 126.6 541.2 126.5 503.9 94.1 485.5"/>
  <polygon class="st0" points="94.1 606 61.9 624.8 62.1 662.1 94.5 680.5 126.6 661.8 126.5 624.5 94.1 606"/>
  <polygon class="st0" points="94.1 726.6 61.9 745.4 62.1 782.7 94.5 801.1 126.6 782.3 126.5 745.1 94.1 726.6"/>
  <polygon class="st0" points="231.7 323.4 261.8 304.7 296.1 324.3 329.4 304.7 359.2 321.5 359.2 362.6 393.2 381.8 393.2 419.9 425.6 442.2 427 479.6 394.8 499.7 393.7 539.2 360.5 560.8 360.2 601 329.8 621.2 296.1 598.9 262.6 619.6 231.7 602.9 231.7 562.5 198.5 542.8 198.5 503 165 482.4 165 443.4 198.5 422.8 198.9 383.7 233.5 362.5 231.7 323.4"/>
  <text class="st1" transform="translate(505.2 924.3)"><tspan x="0" y="0">89</tspan></text>
</svg>